<svg xmlns="http://www.w3.org/2000/svg" width="250" height="80" viewBox="-56.629 376.893 250 80"><path fill="#151515" d="M48.643 3.259h-5.13l5.334 5.789v2.754H37.861V8.576h5.333l-5.333-5.788V.028h10.782v3.231zm-12.96 0h-5.129l5.333 5.789v2.754H24.901V8.576h5.333l-5.333-5.788V.028h10.782v3.231zm-12.833.13h-5.535v5.052h5.535v3.36h-9.469V.028h9.469v3.361z"/><path fill="#646565" d="M5.84 80.255L.215 17.176h61.798l-5.629 63.069-25.308 7.017L5.84 80.255z"/><path fill="#888" d="M31.115 81.899l20.447-5.669 4.813-53.896h-25.26v59.565z"/><path fill="#FFF" d="M31.114 45.187h10.239l.706-7.922H31.114v-7.736h19.4l-.185 2.075-1.902 21.32H31.114v-7.737z"/><path fill="#EBEBEB" d="M31.161 65.279l-.034.01-8.616-2.327-.551-6.17h-7.767l1.084 12.147 15.848 4.399.036-.011v-8.048z"/><path fill="#FFF" d="M40.694 52.596l-.932 10.36-8.628 2.329v8.05l15.859-4.396.115-1.307 1.348-15.036h-7.762z"/><path fill="#EBEBEB" d="M31.141 29.529v7.737H12.455l-.154-1.739-.354-3.922-.185-2.075 19.379-.001zm-.027 15.659v7.737h-8.505l-.153-1.739-.354-3.921-.186-2.076 9.198-.001z"/><title>Slice 1</title><path fill="#646565" d="M77.655 80.801l-5.66-63.487h62.196l-5.666 63.478-25.471 7.062-25.399-7.053z"/><path fill="#888" d="M103.094 82.454l20.58-5.706 4.843-54.244h-25.423v59.95z"/><path fill="#EBEBEB" d="M103.094 46.052H92.789l-.711-7.975h11.016v-7.786H83.568l.188 2.089 1.913 21.457h17.426v-7.785zm0 20.22l-.035.01-8.672-2.342-.555-6.209h-7.817l1.092 12.225 15.949 4.429.037-.01.001-8.103z"/><path fill="#020202" d="M77.781.061h3.957V3.97h3.619V.061h3.958V11.9h-3.958V7.935h-3.619V11.9h-3.957V.061zm16.738 3.925h-3.482V.061h10.926v3.926h-3.485V11.9H94.52l-.001-7.914zm9.176-3.925h4.125l2.539 4.16 2.535-4.16h4.127V11.9h-3.938V6.031l-2.724 4.209h-.067l-2.726-4.209v5.868h-3.871V.061zm15.297 0h3.957v7.926h5.563V11.9h-9.521l.001-11.839z"/><path fill="#FFF" d="M103.065 46.052v7.785h9.589l-.903 10.099-8.686 2.344v8.102l15.964-4.425.116-1.314 1.829-20.5.191-2.09h-2.101l-15.999-.001zm0-15.761v7.787h18.808l.155-1.75.354-3.947.186-2.089-19.503-.001z"/><path opacity=".99" fill="#646565" stroke="#25201D" stroke-width="2" stroke-linejoin="round" stroke-opacity=".043" d="M168.52 18.121h97.521c8.746 0 15.836 4.91 15.836 10.967v46.528c0 6.058-7.09 10.968-15.836 10.968H168.52c-8.747 0-15.836-4.911-15.836-10.968V29.088c-.001-6.057 7.089-10.967 15.836-10.967z"/><path fill="#E7E7E7" d="M176.301 17.635c-17.208 0-23.326-.017-25.372 8.798-.688 2.963-.199 6.764-.448 12.061-.07 1.502.337 3.979-.169 5.642-1.679 5.504-4.463 4.851-6.124 5.046-.069 2.146-.048 2.691.065 6.888 3.63-.041 5.902 2.193 6.092 4.824l.167 16.024c.044 4.22 3.021 7.607 6.352 9.068 2.935 1.287 6.052.881 8.945 1.023l.113-6.649c-3.989.319-6.534-.998-7.3-4.333l-.274-15.625c-.053-3.005-1.491-5.561-4.709-7.855 2.553-1.493 4.165-3.929 4.414-6.286l.457-17.677c.746-3.712 4.36-4.189 9.01-3.764l.229 39.916c.815 9.171 7.172 9.281 12.754 9.922l1.133-7.038c-.997-.429-2.785-.384-4.065-1.624-.588-.57-1.387-1.095-1.382-2.628l.112-45.733zm22.49 17.863c-9.146-.034-16.367 6.887-17.017 18.952-.021 12.764 5.938 19.654 18.389 20.161 7.008-.076 10.122-1.125 12.9-2.258l-1.292-6.612c-11.646 3.34-19.991 2.054-21.129-7.903h24.678c-.15-10.963-1.576-22.283-16.531-22.339l.002-.001zm.721 7.096c3.594.066 7.028 2.8 7.424 8.953H190.89c.279-5.68 4.551-9.03 8.622-8.953zm41.619 1.453l1.289-6.936c-4.974-1.617-10.008-2.405-14.918-1.451-6.645 1.29-9.076 5.05-9.838 9.113-.49 5.272 1.354 9.367 5.968 11.29 7.671 3.198 12.666 5.108 12.015 8.306-1.209 5.931-11.732 3.131-17.178.968l-1.611 7.258c4.604 2.01 10.313 3.078 19.191 1.451 4.219-1.372 8.032-3.314 8.227-10.403.295-7.233-5.59-10.113-10.401-11.532-9.337-2.752-9.25-6.862-5.256-9.325 3.791-1.364 8.673.257 12.512 1.261zm28.072.052l1.29-6.936c-4.974-1.617-10.012-2.405-14.919-1.451-6.645 1.29-9.075 5.05-9.84 9.113-.488 5.272 1.354 9.367 5.969 11.29 7.672 3.197 12.668 5.108 12.016 8.306-1.208 5.931-11.732 3.131-17.177.968l-1.612 7.258c4.603 2.01 10.313 3.078 19.193 1.451 4.217-1.371 8.03-3.314 8.225-10.402.294-7.233-5.591-10.113-10.402-11.533-9.337-2.753-9.248-6.862-5.255-9.325 3.79-1.363 8.673.258 12.512 1.261zm-.409-26.427c9.853-.038 13.164 2.502 15.052 8.626.896 2.907.199 6.764.449 12.06.07 1.502-.412 4.004.169 5.642 1.604 5.526 4.463 4.852 6.123 5.046.07 2.146.049 2.691-.065 6.887-3.631-.04-5.901 2.195-6.092 4.824l-.166 16.025c-.045 4.22-3.021 7.607-6.353 9.068-2.935 1.287-6.051.883-8.944 1.023l-.114-6.647c3.989.319 6.535-.998 7.299-4.333l.277-15.625c.052-3.006 1.489-5.562 4.707-7.855-2.553-1.493-4.164-3.93-4.413-6.286l-.457-17.678c-.067-2.638-3.575-4.243-7.413-3.992l-.059-6.785z"/><path fill="#646565" d="M362.012 37.872a30 30 0 0 1 3.632 14.354c0 11.401-6.333 21.324-15.674 26.447l9.4-26.627c1.458-4.12 2.81-9.689 2.642-14.174zm-25.988 16.59l9.57 26.173a30.11 30.11 0 0 1-10.092 1.735c-3.05 0-5.992-.455-8.767-1.298l9.289-26.61zm-27.955-14.737l14.535 39.75c-10.193-4.836-17.246-15.222-17.246-27.249a30.038 30.038 0 0 1 2.71-12.5z"/><path fill="#646565" d="M350.527 35.104c-.221 7.24 8.656 8.78 3.874 23.338l-3.958 12.044-10.776-31.741c-.166-.49.027-.772.631-.772h3.047c.16 0 .288-.135.288-.3v-1.805c0-.165-.131-.308-.288-.3a195.48 195.48 0 0 1-17.205 0c-.159-.007-.29.137-.29.302v1.804c0 .165.131.3.29.3h3.065c.679 0 .87.229 1.034.666l4.426 12.108-6.662 20.113-10.95-32.248c-.136-.403.03-.64.416-.64h3.492c.159 0 .29-.134.29-.3V35.87c0-.165-.131-.309-.29-.303-3.661.195-7.339.235-10.76.27 5.374-8.277 14.697-13.755 25.3-13.755a30.024 30.024 0 0 1 20.39 7.946c-2.629-.067-5.254 1.497-5.364 5.077z"/><path fill="#FFF" d="M322.604 79.475l-14.535-39.75a30.06 30.06 0 0 0-2.712 12.501c0 12.027 7.054 22.413 17.247 27.249zm22.99 1.16l-9.57-26.174-9.29 26.609a30.073 30.073 0 0 0 8.768 1.298 30.079 30.079 0 0 0 10.092-1.734zm-10.092 4.56c-18.204 0-32.97-14.765-32.97-32.969 0-18.206 14.766-32.973 32.97-32.973 18.207 0 32.97 14.767 32.97 32.973 0 18.204-14.763 32.968-32.97 32.968zm18.9-26.753c4.782-14.558-4.095-16.099-3.874-23.338.11-3.581 2.734-5.144 5.365-5.076a30.023 30.023 0 0 0-20.39-7.946c-10.602 0-19.925 5.478-25.3 13.754 3.424-.034 7.099-.074 10.76-.268.159-.007.29.137.29.302v1.804c0 .165-.131.3-.29.3h-3.491c-.387 0-.553.237-.418.64l10.951 32.248 6.662-20.113-4.426-12.108c-.163-.437-.355-.665-1.034-.665h-3.065a.295.295 0 0 1-.289-.3V35.87c0-.165.13-.309.29-.302 5.7.253 11.436.252 17.204 0 .157-.007.288.136.288.3v1.805c0 .165-.128.3-.288.3H340.3c-.604 0-.798.282-.631.772l10.776 31.74 3.957-12.044zm11.242-6.216a30 30 0 0 0-3.632-14.354c.167 4.485-1.183 10.053-2.643 14.174l-9.4 26.627c9.34-5.123 15.675-15.045 15.675-26.447z"/><path fill="#646565" d="M335.502 19.253c-18.204 0-32.97 14.767-32.97 32.973 0 18.204 14.766 32.968 32.97 32.968 18.207 0 32.97-14.764 32.97-32.968 0-18.206-14.763-32.973-32.97-32.973zm0 68.027c-19.354 0-35.054-15.698-35.054-35.053 0-19.358 15.7-35.055 35.054-35.055 19.357 0 35.055 15.697 35.055 35.055 0 19.355-15.699 35.053-35.055 35.053z"/><g fill="#646565"><path d="M250.989 113.543c-6.542 9.182-5.876 21.238-1.067 31.125l.352.706c.079.147.148.306.228.453.039.087.088.166.146.254.067.157.157.304.246.461.146.274.303.548.46.813.079.146.167.295.256.441l.53.854c.078.127.157.244.236.363.244.383.499.764.771 1.147 0 .01.021.021.021.028.04.06.089.117.128.177.235.323.472.647.706.962.1.117.178.227.267.343.215.274.432.55.656.823.079.1.166.207.255.305.294.363.599.717.922 1.069 0 .009.009.009.009.021.012.021.031.029.031.039.304.334.617.668.931 1l.306.305c.246.254.49.5.745.744.107.098.206.196.306.295.332.324.666.637 1.019.951l.021.021a36.04 36.04 0 0 0 1.099.95c.117.109.245.207.383.314.255.207.511.412.774.618.128.108.264.216.402.325.283.215.587.42.873.636.106.079.205.157.304.235l.089.061c.274.195.559.383.843.569.127.079.246.167.362.245a44.4 44.4 0 0 0 1.687 1.05c.323.194.657.381.989.567.188.099.373.196.54.295.245.129.472.254.716.383.051.029.108.049.168.078.088.05.187.098.284.147.372.187.745.362 1.118.538.078.041.156.079.245.107.432.197.872.383 1.314.57.106.047.216.088.322.127.412.166.835.323 1.237.48.057.02.107.039.155.061.461.166.924.322 1.385.469.105.031.215.068.332.1.47.146.932.323 1.423.421 31.085 6.042 40.412-18.255 40.412-18.255-7.708 9.811-21.225 12.271-33.967 9.221-.481-.117-.953-.273-1.423-.421-.118-.038-.235-.079-.354-.108a72.852 72.852 0 0 1-1.363-.461c-.059-.02-.127-.037-.186-.068-.403-.146-.806-.305-1.208-.459-.117-.051-.216-.09-.333-.139-.44-.176-.873-.363-1.295-.561-.1-.038-.177-.078-.267-.117-.371-.177-.734-.344-1.097-.529a4.818 4.818 0 0 1-.324-.157c-.286-.147-.567-.304-.854-.45-.188-.107-.372-.197-.56-.305-.345-.187-.677-.383-1.021-.579-.106-.069-.227-.128-.332-.196-.453-.266-.896-.549-1.335-.824-.117-.078-.235-.166-.354-.244a57.773 57.773 0 0 1-.94-.638 3.509 3.509 0 0 1-.294-.217c-.306-.215-.6-.44-.895-.657a5.017 5.017 0 0 1-.392-.305 33.074 33.074 0 0 1-.795-.646c-.118-.099-.244-.195-.363-.293-.333-.287-.667-.57-1-.865-.028-.027-.069-.058-.107-.096-.354-.324-.696-.648-1.05-.973l-.294-.294c-.256-.246-.511-.5-.746-.757a5.123 5.123 0 0 1-.305-.303c-.304-.324-.617-.658-.922-.992-.02-.02-.028-.028-.038-.047a26.39 26.39 0 0 1-.934-1.09c-.089-.1-.165-.197-.255-.293-.216-.285-.44-.57-.667-.854a3.865 3.865 0 0 1-.244-.313 20.412 20.412 0 0 1-.774-1.06c-6.985-9.763-9.379-23.14-3.59-34.028"/><path d="M271.078 105.971c-4.737 6.65-4.592 15.627-1.039 22.758a29.754 29.754 0 0 0 2.021 3.463c.688 1.009 1.441 2.207 2.373 3.021.335.373.668.735 1.021 1.099.096.088.175.176.272.274.343.345.697.677 1.06 1.011.021.01.03.029.04.039.01 0 .01.012.01.012.394.361.814.705 1.227 1.047.1.07.195.147.284.227.422.324.854.657 1.295.961.01.01.029.02.04.03.195.137.394.274.588.401.1.06.188.129.284.188.313.206.638.412.962.599.05.027.089.06.137.078.284.168.569.324.845.491.097.06.207.106.305.157.195.107.393.216.588.314.03.019.061.028.089.039.41.207.822.411 1.235.598.087.039.187.078.275.119.333.146.677.283 1.02.42.146.061.295.119.433.168.304.117.617.226.94.332.138.051.275.099.422.139.441.148.883.324 1.355.412 24 4.257 29.76-14.194 29.76-14.194-5.093 7.151-14.813 10.478-25.132 7.671a37.95 37.95 0 0 1-1.354-.412c-.138-.039-.274-.089-.412-.138-.313-.106-.638-.224-.941-.334-.147-.058-.284-.106-.422-.166a17.509 17.509 0 0 1-1.021-.421c-.088-.038-.188-.079-.274-.117a23.496 23.496 0 0 1-1.245-.6c-.217-.098-.422-.215-.64-.324a6.638 6.638 0 0 1-.352-.196c-.275-.147-.531-.304-.796-.45a2.132 2.132 0 0 0-.187-.108 35.123 35.123 0 0 1-.962-.599l-.284-.195c-.216-.137-.421-.285-.617-.424a25.111 25.111 0 0 1-1.285-.961c-.1-.078-.195-.156-.293-.233-4.484-3.63-8.015-8.556-9.663-14.106-1.728-5.769-1.267-12.203 1.902-17.402"/><path d="M287.567 100.281c-2.747 4.041-3.012 9.053-1.105 13.517 2.008 4.738 6.119 8.456 10.926 10.222.196.067.392.137.599.205.089.029.177.06.255.088.284.088.569.196.862.246 13.282 2.569 16.883-6.817 17.833-8.19-3.147 4.541-8.455 5.629-14.958 4.051a16.967 16.967 0 0 1-1.57-.481 18.789 18.789 0 0 1-5.149-2.774c-5.826-4.415-9.437-12.841-5.64-19.707"/></g><g xmlns:rdf="http://www.w3.org/1999/02/22-rdf-syntax-ns#" xmlns:cc="http://creativecommons.org/ns#" xmlns:dc="http://purl.org/dc/elements/1.1/" xmlns:svg="http://www.w3.org/2000/svg" xmlns:inkscape="http://www.inkscape.org/namespaces/inkscape" xmlns:sodipodi="http://sodipodi.sourceforge.net/DTD/sodipodi-0.dtd" inkscape:version="0.48.1 r9760" sodipodi:docname="twitter_bootstrap_logo.svg"><path fill="#FFF" d="M70.526 109.18v46.883c0 6.449-5.271 11.723-11.723 11.723H11.92c-6.45 0-11.724-5.273-11.724-11.723V109.18c0-6.451 5.272-11.724 11.724-11.724h46.883c6.45.001 11.723 5.273 11.723 11.724zm-.692 46.883V109.18c0-2.931-1.149-5.703-3.239-7.793s-4.863-3.238-7.792-3.238H11.92c-2.93 0-5.703 1.148-7.792 3.238S.889 106.25.889 109.18v46.883c0 2.93 1.149 5.701 3.239 7.791a10.947 10.947 0 0 0 7.792 3.24h46.883c2.93 0 5.703-1.146 7.792-3.24a10.96 10.96 0 0 0 3.239-7.791z"/><path fill="#656565" d="M69.834 109.18v46.883c0 2.93-1.149 5.701-3.239 7.791a10.947 10.947 0 0 1-7.792 3.24H11.92c-2.93 0-5.703-1.146-7.792-3.24a10.962 10.962 0 0 1-3.239-7.791V109.18c0-2.931 1.149-5.703 3.239-7.793s4.863-3.238 7.792-3.238h46.883c2.93 0 5.703 1.148 7.792 3.238a10.963 10.963 0 0 1 3.239 7.793z"/><path fill="#FFF" d="M19.308 112.74h19.938c3.677 0 6.63.838 8.849 2.527 2.218 1.689 3.333 4.229 3.333 7.643 0 2.068-.505 3.839-1.516 5.311-1.013 1.471-2.46 2.62-4.346 3.424v.113c2.529.541 4.447 1.735 5.745 3.586 1.299 1.861 1.953 4.182 1.953 6.986 0 1.609-.287 3.115-.861 4.505-.574 1.401-1.471 2.61-2.7 3.619-1.23 1.011-2.792 1.817-4.712 2.414-1.919.597-4.194.896-6.838.896H19.308V112.74zm7.182 17.18h11.721c1.724 0 3.16-.482 4.31-1.471s1.725-2.391 1.725-4.23c0-2.068-.519-3.525-1.551-4.365-1.033-.84-2.528-1.265-4.481-1.265H26.49v11.331zm0 17.984h12.697c2.186 0 3.885-.563 5.081-1.701 1.206-1.127 1.816-2.734 1.816-4.805 0-2.033-.599-3.584-1.816-4.688s-2.896-1.632-5.081-1.632H26.49v12.826z"/></g><path d="M77.27 122.111c.131-.023.237-.061.344-.061 4.398.018 8.797.012 13.194.072 1.498.021 2.875.55 4.106 1.426 2.811 2 3.068 7.713-.788 9.762-.198.104-.393.211-.659.353.733.336 1.454.562 2.059.964 2.321 1.541 3.267 4.99 2.229 8.02-.907 2.645-3.061 3.735-5.563 4.315-.822.19-1.683.289-2.527.295-4.111.03-8.224.015-12.396.015l.001-25.161zm4.397 21.473c3.057 0 6.026.068 8.991-.025 1.862-.059 3.209-2.056 3.098-3.998-.111-1.916-1.29-3.545-3.112-3.629-2.938-.138-5.885-.1-8.829-.129-.044 0-.088.063-.147.11l-.001 7.671zm.01-11.061c2.733 0 5.369.1 7.993-.032 1.932-.097 3.022-1.644 2.951-3.755-.065-1.87-1.168-2.994-3.156-3.047-2.493-.064-4.987-.035-7.482-.041-.102 0-.204.055-.306.084v6.791zm136.288-3.455h3.664v1.965c.409-.315.906-.665 1.364-1.059 2.811-2.41 9.472-2.115 11.751 2.739 1.964 4.179 1.878 8.38-.771 12.271-1.467 2.154-3.738 2.925-6.312 2.785-2.236-.119-4.205-.822-5.754-2.893v9.162h-3.943l.001-24.97zm3.723 9.202c.166.914.256 1.852.513 2.74.568 1.984 2.305 3.452 4.104 3.579 2.404.17 4.13-.719 5-2.851 1.104-2.709 1.065-5.442-.55-7.975-1.904-2.986-6.467-2.736-8.08.393a8.701 8.701 0 0 0-.987 4.114zm-6.323 6.395c0 .749.026 1.509-.02 2.267-.011.187-.245.502-.396.516-1.145.095-2.307.262-3.436.145-.994-.104-1.542-.947-1.849-1.923-2.363 1.923-5.073 2.339-7.954 1.981-2.409-.297-4.407-2.276-4.577-4.475-.238-3.027.925-5 3.646-5.718 1.905-.503 3.893-.705 5.843-1.045.474-.083.953-.149 1.414-.276.888-.242 1.526-.734 1.594-1.744.065-1.043-.338-1.857-1.32-2.252-1.675-.674-3.38-.658-5.027.114-.754.353-1.2 1.06-1.596 2.263h-3.862c.003-1.473.516-2.711 1.492-3.752 1.293-1.377 2.979-1.918 4.792-2.107 1.899-.199 3.789-.19 5.635.433 2.48.837 3.669 2.474 3.666 5.095-.005 2.781 0 5.563-.003 8.346-.001 1.972-.001 1.972 1.958 2.132zm-5.972-6.278c-1.217.211-2.33.373-3.431.604-1.157.242-2.335.451-3.438.855-1.082.395-1.447 1.406-1.413 2.491.034 1.037.743 1.618 1.656 1.938 1.566.547 3.137.479 4.631-.221 1.07-.5 1.886-1.318 1.979-2.568.081-1.041.016-2.091.016-3.099zm-99.431-9.845c6.061-.071 9.614 4.371 9.238 10.42-.13 2.103-.694 4.067-2.078 5.729-1.491 1.789-3.411 2.732-5.711 2.988-1.92.213-3.787.088-5.567-.72-2.651-1.204-4.163-3.304-4.799-6.103a11.95 11.95 0 0 1 .073-5.723c1.078-4.183 4.3-6.574 8.844-6.591zm-5.276 9.653c.16.888.242 1.798.492 2.66.636 2.193 2.368 3.643 4.347 3.738 2.447.118 4.16-.912 5.068-3.191.888-2.225.89-4.5-.084-6.699-1.442-3.258-5.371-4.09-7.901-1.669-1.443 1.38-1.816 3.214-1.922 5.161zm26.302-9.653c5.466-.008 9.184 3.675 9.253 9.153.029 2.313-.348 4.52-1.705 6.457-1.943 2.775-4.75 3.744-7.983 3.598a11.239 11.239 0 0 1-3.537-.755c-2.605-1.022-4.159-3.038-4.85-5.733-.606-2.367-.539-4.72.231-7.033 1.183-3.549 4.428-5.68 8.591-5.687zm5.238 9.161c-.088-.486-.175-1.426-.436-2.313-.668-2.257-2.427-3.627-4.645-3.724-2.087-.09-3.966 1.14-4.775 3.297-.954 2.54-.884 5.069.554 7.437 1.497 2.465 4.892 3.004 7.118 1.166 1.698-1.403 2.113-3.341 2.184-5.863zm33.795-3.574c-1.248 0-2.462.01-3.676-.013-.15-.003-.382-.153-.43-.288-.685-1.896-2.289-2.121-3.95-2.131-.688-.004-1.422.164-2.06.431-1.363.572-1.514 2.113-.238 2.853.888.513 1.926.787 2.926 1.068 1.415.398 2.875.639 4.28 1.063 3.593 1.086 4.996 4.688 2.983 7.658-.965 1.422-2.406 2.194-4.061 2.594-2.446.59-4.88.633-7.271-.23-2.556-.923-3.907-2.777-4.106-5.584h3.9c1.11 2.896 4.244 4.023 7.182 2.543.679-.342 1.133-.828 1.178-1.629.049-.855-.281-1.592-1.051-1.878-1.368-.511-2.797-.86-4.204-1.272-1.164-.342-2.365-.588-3.488-1.033-2.167-.857-3.109-2.334-3.096-4.586.011-1.963 1.159-3.646 3.194-4.383 2.801-1.016 5.659-1.142 8.472-.039 1.903.744 3.036 2.215 3.509 4.192.045.181.007.385.007.664zm-21.182-5.111h3.611v2.953h-3.538c-.025.354-.058.602-.058.85-.004 2.979-.004 5.959 0 8.939.002.397.032.795.071 1.189.077.789.515 1.257 1.309 1.3.728.039 1.459.008 2.229.008v2.953c-1.648.408-3.325.388-4.948.024-1.89-.422-2.657-1.721-2.673-4.182-.024-3.349-.008-6.699-.008-10.049v-.984h-3v-2.986h2.959v-5.469h4.046v5.454zm33.772 18.304c-1.554 0-3.024.049-4.489-.014-1.422-.061-2.517-1.002-2.825-2.408a11.883 11.883 0 0 1-.281-2.442c-.031-3.151-.013-6.302-.013-9.454v-.997h-2.99v-2.946h2.945v-5.492h4.054v5.402h3.596v2.969h-3.447c-.041.268-.096.451-.096.638-.004 3.208-.015 6.416.006 9.624.012 1.695.456 2.105 2.139 2.094.45-.003.897-.001 1.403-.001-.002.971-.002 1.946-.002 3.027zm6.744-18.243v3.106c1.558-2.644 3.712-4.021 6.895-3.552v3.833c-1.512-.229-2.971-.268-4.263.661-1.691 1.218-2.283 2.997-2.326 4.958-.064 3.033-.017 6.068-.017 9.167h-3.973v-18.174l3.684.001z" fill="#656565"/><path fill="#151515" d="M7.985 233.237H1.488l6.756 7.332v3.49H-5.672v-4.087h6.755l-6.755-7.331v-3.498H7.985v4.094zm-16.415 0h-6.497l6.755 7.332v3.49h-13.916v-4.087h6.755l-6.755-7.331v-3.498H-8.43v4.094zm-16.256.165h-7.011v6.4h7.011v4.254H-36.68v-14.913h11.994v4.259z"/><path fill="#646565" d="M-46.232 330.766l-7.125-79.9H24.92l-7.13 79.889-32.056 8.888-31.966-8.877z"/><path fill="#888" d="M-14.216 332.847l25.9-7.179 6.096-68.269h-31.996v75.448z"/><path fill="#FFF" d="M-14.219 286.347h12.97l.894-10.033h-13.864v-9.8h24.575l-.234 2.627-2.41 27.006h-21.93v-9.8z"/><path fill="#EBEBEB" d="M-14.157 311.796l-.043.014-10.914-2.948-.698-7.814h-9.837l1.373 15.387 20.074 5.57.046-.014v-10.195z"/><path fill="#FFF" d="M-2.084 295.73l-1.18 13.123-10.929 2.95V322l20.088-5.566.146-1.657 1.707-19.046h-9.832z"/><path fill="#EBEBEB" d="M-14.184 266.514v9.799h-23.67l-.195-2.203-.449-4.968-.234-2.629h24.548v.001zm-.035 19.833v9.801h-10.773l-.194-2.204-.448-4.966-.235-2.629h11.651v-.002z"/><path fill="#646565" d="M40.56 331.062l-7.17-80.416h78.782l-7.176 80.405-32.263 8.945-32.173-8.934z"/><path fill="#888" d="M72.782 333.156l26.068-7.229 6.134-68.708H72.782v75.937z"/><path fill="#EBEBEB" d="M72.782 287.049H59.73l-.9-10.104h13.953v-9.861H48.049l.238 2.646 2.424 27.179h22.072v-9.86zm0 25.609l-.044.013-10.984-2.965-.702-7.865H51.15l1.383 15.485 20.203 5.608.047-.011-.001-10.265z"/><path fill="#020202" d="M40.719 228.79h5.013v4.953h4.584v-4.953h5.014v14.997h-5.014v-5.021h-4.584v5.021h-5.013V228.79zm21.202 4.974H57.51v-4.974h13.839v4.974h-4.415v10.023h-5.012l-.001-10.023zm11.623-4.974h5.225l3.216 5.271 3.211-5.271h5.228v14.997h-4.989v-7.434l-3.45 5.332H81.9l-3.453-5.332v7.432h-4.903V228.79zm19.377 0h5.012v10.04h7.047v4.957H92.919l.002-14.997z"/><path fill="#FFF" d="M72.746 287.049v9.859h12.146l-1.146 12.79-11.001 2.97v10.264l20.22-5.604.148-1.665 2.317-25.968.242-2.646H72.746zm0-19.966v9.864H96.57l.197-2.217.449-5 .234-2.646-24.704-.001z"/><path fill="#646565" d="M209.402 268.22a33.794 33.794 0 0 1 4.093 16.174c0 12.845-7.139 24.029-17.661 29.8l10.589-30.001c1.647-4.645 3.168-10.92 2.98-15.972zm-29.282 18.692l10.785 29.493a33.92 33.92 0 0 1-11.374 1.958c-3.436 0-6.753-.515-9.88-1.463l10.468-29.988zm-31.502-16.604l16.38 44.79c-11.485-5.449-19.433-17.151-19.433-30.704 0-5.026 1.097-9.797 3.053-14.086z"/><path fill="#646565" d="M196.464 265.1c-.25 8.157 9.75 9.892 4.363 26.299l-4.459 13.572-12.144-35.77c-.186-.548.032-.867.712-.867h3.432a.331.331 0 0 0 .325-.336v-2.037c0-.186-.147-.346-.325-.339-6.5.286-12.962.289-19.386 0-.179-.007-.325.154-.325.341v2.035c0 .184.146.337.325.337h3.454c.766 0 .981.258 1.165.75l4.986 13.644-7.505 22.664-12.34-36.338c-.152-.453.036-.721.47-.721h3.935c.18 0 .326-.153.326-.336v-2.035c0-.186-.147-.348-.326-.342-4.126.22-8.27.265-12.125.304 6.056-9.326 16.56-15.502 28.508-15.502a33.823 33.823 0 0 1 22.976 8.956c-2.962-.076-5.92 1.685-6.042 5.72z"/><path fill="#FFF" d="M164.998 315.099l-16.38-44.79a33.858 33.858 0 0 0-3.053 14.085c0 13.553 7.948 25.255 19.433 30.705zm25.907 1.306l-10.786-29.495-10.467 29.987a33.93 33.93 0 0 0 9.88 1.46 33.838 33.838 0 0 0 11.373-1.952zm-11.374 5.137c-20.512 0-37.15-16.636-37.15-37.148 0-20.517 16.638-37.154 37.15-37.154 20.515 0 37.15 16.637 37.15 37.154 0 20.512-16.634 37.148-37.15 37.148zm21.296-30.143c5.387-16.404-4.614-18.14-4.363-26.3.121-4.037 3.08-5.796 6.043-5.72a33.825 33.825 0 0 0-22.976-8.953c-11.946 0-22.452 6.173-28.508 15.498 3.857-.038 8-.084 12.125-.303.18-.007.326.154.326.341v2.035a.334.334 0 0 1-.326.337h-3.934c-.435 0-.623.268-.47.721l12.34 36.34 7.504-22.664-4.986-13.647c-.184-.492-.399-.748-1.165-.748h-3.454a.331.331 0 0 1-.325-.337v-2.032c0-.187.146-.349.325-.344a217.82 217.82 0 0 0 19.386 0c.178-.005.325.154.325.34v2.035a.33.33 0 0 1-.325.337h-3.432c-.681 0-.9.318-.712.87l12.144 35.766 4.458-13.572zm12.67-7.005a33.794 33.794 0 0 0-4.094-16.173c.188 5.051-1.332 11.327-2.979 15.972l-10.59 30.001c10.523-5.771 17.663-16.952 17.663-29.8z"/><path fill="#646565" d="M179.531 247.24c-20.512 0-37.15 16.637-37.15 37.154 0 20.512 16.638 37.148 37.15 37.148 20.515 0 37.15-16.636 37.15-37.148 0-20.517-16.634-37.154-37.15-37.154zm0 76.653c-21.809 0-39.5-17.689-39.5-39.498 0-21.813 17.691-39.502 39.5-39.502 21.81 0 39.5 17.689 39.5 39.502-.001 21.81-17.69 39.498-39.5 39.498z"/><g fill="#646565"><path d="M276.268 262.522c-7.106 10.348-6.383 23.935-1.159 35.076.125.264.254.53.382.796.086.166.161.345.246.511.044.098.097.188.159.286.072.177.171.342.268.519.158.31.329.617.499.917.086.166.182.333.278.497l.576.963c.085.144.171.275.256.409.266.432.543.861.839 1.293 0 .012.021.023.021.032.044.066.098.132.14.199.256.364.513.729.767 1.084.108.132.193.256.29.387.233.31.469.618.713.928.086.112.18.233.277.343.319.409.65.809 1.001 1.205 0 .01.01.01.01.023.013.022.034.033.034.044.33.376.67.753 1.011 1.127l.332.344c.267.285.532.563.81.838.116.109.224.222.332.333.359.364.724.717 1.105 1.072l.024.022c.063.054.128.111.182.166.33.308.67.607 1.012.904.127.124.267.234.416.355.276.232.555.464.841.696.14.122.287.243.438.366.307.241.638.473.948.716.115.09.223.178.33.266.033.022.064.046.096.068.299.221.607.432.916.643.138.088.268.188.394.275a49.416 49.416 0 0 0 1.833 1.184c.352.219.714.429 1.075.639.204.11.405.221.586.333.268.145.513.286.778.432.055.032.117.055.183.088.095.056.203.11.309.165.404.21.809.409 1.215.606.084.048.169.09.266.122.469.222.947.431 1.428.643.116.053.234.099.351.143.447.188.907.364 1.344.541.062.022.116.045.169.069.501.187 1.004.363 1.504.528.115.035.233.076.361.111.51.165 1.012.364 1.546.475 33.769 6.81 43.9-20.572 43.9-20.572-8.374 11.056-23.057 13.829-36.899 10.391-.522-.132-1.035-.308-1.546-.474-.128-.043-.255-.089-.385-.122-.489-.165-.99-.344-1.48-.52-.063-.022-.139-.042-.202-.077-.438-.165-.875-.344-1.313-.518-.127-.057-.234-.101-.361-.156a24.897 24.897 0 0 1-1.406-.632c-.108-.043-.192-.088-.29-.132-.403-.198-.798-.387-1.191-.596a5.073 5.073 0 0 1-.353-.178c-.311-.167-.616-.342-.927-.507-.203-.122-.404-.223-.607-.344-.375-.21-.735-.432-1.109-.652-.115-.079-.246-.145-.36-.222-.492-.299-.973-.618-1.451-.93-.126-.087-.255-.187-.385-.274a68.29 68.29 0 0 1-1.021-.718 4.275 4.275 0 0 1-.319-.245c-.332-.242-.651-.497-.971-.74a5.822 5.822 0 0 1-.426-.344 31.18 31.18 0 0 1-.864-.729c-.128-.111-.265-.22-.395-.33-.362-.323-.725-.643-1.086-.976-.031-.031-.075-.064-.117-.107-.383-.365-.757-.731-1.14-1.096l-.319-.332a18.549 18.549 0 0 1-.811-.853 5.342 5.342 0 0 1-.331-.341c-.33-.366-.67-.742-1.002-1.119-.021-.021-.031-.031-.041-.053a28.622 28.622 0 0 1-1.015-1.228c-.096-.112-.18-.223-.276-.33a47.587 47.587 0 0 0-.725-.964 4.022 4.022 0 0 1-.266-.353 23.743 23.743 0 0 1-.841-1.194c-7.588-11.003-10.189-26.077-3.899-38.348"/><path d="M298.092 253.988c-5.146 7.495-4.988 17.611-1.129 25.647a33.846 33.846 0 0 0 2.194 3.902c.748 1.137 1.566 2.487 2.579 3.403.363.421.726.829 1.109 1.239.104.099.189.197.296.31.373.388.758.762 1.151 1.139.022.011.032.033.044.044.01 0 .01.013.01.013.428.407.885.795 1.332 1.18.108.079.213.167.31.256.458.365.928.741 1.406 1.083.011.012.032.021.044.033.212.154.427.31.639.452.107.068.203.146.309.213.34.232.692.465 1.045.675.054.03.097.067.148.089.309.188.618.364.918.553.104.067.225.12.331.178.212.121.427.243.638.354a.436.436 0 0 0 .097.044c.446.233.894.463 1.343.674.095.044.202.088.299.135.362.165.735.319 1.107.473.158.068.32.134.471.189.329.132.67.254 1.021.374.15.058.3.111.459.157.479.166.959.365 1.472.464 26.072 4.798 32.329-15.997 32.329-15.997-5.532 8.061-16.092 11.809-27.301 8.646-.488-.145-.98-.299-1.471-.464-.149-.045-.298-.101-.447-.156-.341-.119-.693-.252-1.022-.376-.16-.065-.31-.12-.459-.187-.372-.143-.748-.31-1.108-.475-.096-.044-.204-.089-.298-.133-.46-.211-.918-.442-1.354-.675-.234-.11-.457-.242-.694-.366a5.84 5.84 0 0 1-.382-.221c-.3-.166-.577-.343-.865-.508a1.96 1.96 0 0 0-.202-.121 36.559 36.559 0 0 1-1.045-.676c-.096-.066-.2-.143-.309-.221-.234-.153-.458-.32-.671-.477a27.416 27.416 0 0 1-1.396-1.083l-.317-.263c-4.872-4.091-8.707-9.643-10.498-15.897-1.877-6.501-1.375-13.753 2.067-19.612"/><path d="M316.004 247.576c-2.984 4.555-3.271 10.202-1.201 15.233 2.181 5.339 6.647 9.529 11.869 11.519.213.077.425.154.65.231.097.033.192.067.277.1.309.099.617.221.937.277 14.428 2.896 18.34-7.684 19.372-9.23-3.42 5.117-9.185 6.344-16.249 4.564a17.713 17.713 0 0 1-1.706-.542 20.229 20.229 0 0 1-5.594-3.127c-6.33-4.976-10.252-14.471-6.127-22.209"/></g><g xmlns:rdf="http://www.w3.org/1999/02/22-rdf-syntax-ns#" xmlns:cc="http://creativecommons.org/ns#" xmlns:dc="http://purl.org/dc/elements/1.1/" xmlns:svg="http://www.w3.org/2000/svg" xmlns:inkscape="http://www.inkscape.org/namespaces/inkscape" xmlns:sodipodi="http://sodipodi.sourceforge.net/DTD/sodipodi-0.dtd" inkscape:version="0.48.1 r9760" sodipodi:docname="twitter_bootstrap_logo.svg"><path fill="#FFF" d="M18.213 392.205v49.377c0 6.793-5.552 12.346-12.346 12.346H-43.51c-6.793 0-12.347-5.553-12.347-12.346v-49.377c0-6.795 5.553-12.348 12.347-12.348H5.866c6.794 0 12.347 5.553 12.347 12.348zm-.728 49.377v-49.377c0-3.088-1.21-6.008-3.412-8.209a11.554 11.554 0 0 0-8.207-3.41h-49.377a11.55 11.55 0 0 0-8.206 3.41 11.55 11.55 0 0 0-3.412 8.209v49.377c0 3.086 1.21 6.004 3.412 8.205a11.53 11.53 0 0 0 8.206 3.412H5.866a11.53 11.53 0 0 0 8.207-3.412 11.54 11.54 0 0 0 3.412-8.205z"/><path fill="#656565" d="M17.485 392.205v49.377c0 3.086-1.21 6.004-3.412 8.205a11.53 11.53 0 0 1-8.207 3.412h-49.377a11.527 11.527 0 0 1-8.206-3.412 11.54 11.54 0 0 1-3.412-8.205v-49.377c0-3.088 1.21-6.008 3.412-8.209a11.553 11.553 0 0 1 8.206-3.41H5.866c3.085 0 6.006 1.211 8.207 3.41a11.55 11.55 0 0 1 3.412 8.209z"/><path fill="#FFF" d="M-35.73 395.955h20.999c3.873 0 6.982.881 9.319 2.662 2.336 1.777 3.51 4.453 3.51 8.049 0 2.178-.531 4.043-1.596 5.592-1.066 1.551-2.591 2.76-4.577 3.607v.117c2.664.57 4.684 1.83 6.05 3.777 1.369 1.961 2.058 4.404 2.058 7.359 0 1.693-.303 3.281-.908 4.744-.604 1.475-1.548 2.75-2.843 3.811-1.296 1.066-2.941 1.916-4.963 2.543-2.021.629-4.417.943-7.202.943H-35.73v-43.204zm7.565 18.094h12.344c1.815 0 3.329-.508 4.539-1.551 1.211-1.039 1.817-2.518 1.817-4.455 0-2.178-.546-3.713-1.633-4.598-1.088-.883-2.663-1.33-4.72-1.33h-12.346v11.934h-.001zm0 18.941h13.373c2.302 0 4.091-.594 5.352-1.793 1.27-1.188 1.913-2.879 1.913-5.061 0-2.141-.63-3.773-1.913-4.936-1.283-1.162-3.05-1.721-5.352-1.721h-13.373v13.511z"/></g><path d="M25.316 405.824c.138-.025.25-.064.362-.064 4.632.02 9.265.014 13.896.076 1.578.023 3.028.58 4.325 1.502 2.96 2.105 3.231 8.123-.83 10.281-.209.109-.414.221-.694.371.772.354 1.531.592 2.168 1.016 2.445 1.623 3.44 5.256 2.347 8.445-.956 2.785-3.224 3.934-5.859 4.545a12.35 12.35 0 0 1-2.662.313c-4.33.029-8.661.014-13.056.014.003-8.823.003-17.645.003-26.499zm4.632 22.615c3.219 0 6.347.072 9.47-.027 1.961-.063 3.379-2.166 3.262-4.211-.117-2.018-1.359-3.732-3.278-3.82-3.094-.146-6.198-.105-9.299-.137-.046 0-.092.066-.155.117v8.078zm.009-11.648c2.879 0 5.655.104 8.418-.035 2.035-.102 3.184-1.73 3.108-3.955-.069-1.969-1.23-3.152-3.324-3.209-2.625-.066-5.253-.037-7.88-.043-.107 0-.215.059-.322.09v7.152zm143.54-3.641h3.859v2.07c.431-.332.955-.701 1.437-1.115 2.96-2.539 9.976-2.229 12.376 2.885 2.069 4.4 1.978 8.826-.813 12.924-1.544 2.27-3.937 3.08-6.647 2.934-2.355-.125-4.429-.867-6.06-3.047v9.65h-4.153l.001-26.301zm3.92 9.692c.175.963.27 1.951.541 2.887.599 2.09 2.427 3.635 4.322 3.77 2.532.178 4.35-.758 5.266-3.004 1.163-2.852 1.123-5.73-.579-8.398-2.005-3.145-6.811-2.881-8.51.414a9.165 9.165 0 0 0-1.04 4.331zm-6.658 6.736c0 .789.028 1.588-.021 2.387-.011.197-.258.529-.417.543-1.206.1-2.429.275-3.618.152-1.047-.109-1.624-.998-1.947-2.025-2.489 2.025-5.344 2.463-8.378 2.088-2.537-.314-4.642-2.398-4.82-4.713-.251-3.189.974-5.268 3.839-6.021 2.007-.531 4.1-.744 6.154-1.102.499-.088 1.004-.158 1.489-.291.935-.256 1.608-.773 1.679-1.838.068-1.098-.356-1.955-1.391-2.371-1.764-.709-3.56-.693-5.295.121-.794.371-1.264 1.115-1.68 2.383h-4.068c.003-1.551.543-2.855 1.572-3.951 1.361-1.451 3.137-2.021 5.047-2.221 2-.209 3.991-.201 5.935.455 2.613.883 3.864 2.605 3.861 5.367-.005 2.93 0 5.859-.003 8.789-.002 2.078-.002 2.078 2.062 2.248zm-6.29-6.613c-1.282.223-2.454.393-3.613.637-1.219.254-2.459.475-3.622.9-1.139.416-1.524 1.48-1.488 2.625.036 1.092.782 1.703 1.744 2.041 1.65.574 3.304.504 4.877-.232 1.128-.527 1.986-1.389 2.085-2.705.085-1.098.017-2.204.017-3.266zM59.748 412.598c6.383-.076 10.125 4.604 9.729 10.973-.137 2.215-.731 4.285-2.188 6.035-1.571 1.885-3.593 2.879-6.015 3.148-2.022.223-3.988.092-5.863-.76-2.792-1.268-4.385-3.479-5.054-6.428a12.58 12.58 0 0 1 .077-6.025c1.134-4.408 4.528-6.926 9.314-6.943zm-5.558 10.166c.169.936.255 1.893.519 2.801.669 2.311 2.494 3.838 4.577 3.939 2.578.123 4.382-.961 5.338-3.363.935-2.342.937-4.738-.088-7.055-1.519-3.432-5.657-4.307-8.322-1.758-1.518 1.453-1.912 3.385-2.024 5.436zm27.702-10.166c5.756-.01 9.672 3.869 9.745 9.641.031 2.436-.366 4.758-1.796 6.801-2.047 2.922-5.002 3.941-8.408 3.787a11.791 11.791 0 0 1-3.725-.795c-2.745-1.076-4.381-3.199-5.108-6.037-.639-2.494-.568-4.971.244-7.408 1.247-3.739 4.664-5.983 9.048-5.989zm5.517 9.648c-.093-.514-.185-1.502-.459-2.436-.704-2.377-2.556-3.82-4.892-3.922-2.198-.096-4.177 1.199-5.029 3.473-1.005 2.674-.931 5.338.583 7.83 1.577 2.598 5.151 3.164 7.497 1.229 1.788-1.479 2.224-3.52 2.3-6.174zm35.593-3.766c-1.315 0-2.593.012-3.872-.012-.158-.004-.402-.164-.453-.305-.721-1.996-2.411-2.234-4.16-2.244-.725-.004-1.498.174-2.169.453-1.436.604-1.594 2.227-.251 3.006.935.539 2.028.828 3.082 1.125 1.49.418 3.028.672 4.508 1.117 3.784 1.145 5.262 4.939 3.143 8.066-1.017 1.498-2.535 2.311-4.277 2.732-2.576.621-5.14.666-7.658-.244-2.691-.971-4.115-2.924-4.325-5.881h4.108c1.169 3.051 4.47 4.238 7.563 2.68.715-.361 1.193-.873 1.24-1.717.052-.9-.296-1.676-1.106-1.977-1.441-.539-2.946-.908-4.428-1.342-1.226-.359-2.491-.619-3.674-1.088-2.282-.902-3.275-2.457-3.261-4.828.012-2.068 1.221-3.84 3.364-4.617 2.95-1.07 5.96-1.201 8.923-.041 2.004.783 3.197 2.332 3.695 4.416.048.194.008.409.008.701zm-22.309-5.382h3.803v3.109h-3.727c-.026.375-.061.635-.061.896-.004 3.137-.004 6.275 0 9.414.002.42.034.838.075 1.254.082.83.542 1.322 1.378 1.367.767.043 1.537.01 2.347.01v3.109c-1.736.43-3.502.408-5.211.025-1.99-.443-2.798-1.813-2.815-4.404-.026-3.525-.008-7.055-.008-10.582v-1.037h-3.16v-3.145h3.117v-5.762h4.261l.001 5.746zm35.568 19.279c-1.636 0-3.186.051-4.729-.016-1.497-.063-2.65-1.055-2.975-2.535a12.462 12.462 0 0 1-.296-2.572c-.033-3.32-.014-6.637-.014-9.957v-1.051h-3.149v-3.104h3.102v-5.785h4.269v5.691h3.787v3.127h-3.63c-.043.281-.101.475-.101.672-.004 3.377-.015 6.756.006 10.135.012 1.785.48 2.219 2.252 2.205.474-.002.945 0 1.478 0v3.19zm7.104-19.215v3.271c1.64-2.783 3.909-4.234 7.261-3.74v4.037c-1.592-.24-3.129-.283-4.49.695-1.781 1.283-2.404 3.158-2.45 5.223-.068 3.195-.018 6.391-.018 9.654h-4.184v-19.141l3.881.001z" fill="#656565"/><path opacity=".99" fill="#646565" stroke="#25201D" stroke-width="2" stroke-linejoin="round" stroke-opacity=".043" d="M238.215 380.143H342.91c9.39 0 17.001 5.271 17.001 11.773v49.951c0 6.504-7.611 11.775-17.001 11.775H238.215c-9.391 0-17.001-5.273-17.001-11.775v-49.951c-.001-6.502 7.61-11.773 17.001-11.773z"/><path fill="#E7E7E7" d="M246.453 379.653c-18.474 0-25.042-.018-27.238 9.446-.738 3.181-.214 7.261-.481 12.947-.075 1.612.361 4.271-.182 6.058-1.802 5.909-4.791 5.207-6.574 5.416-.074 2.305-.052 2.89.07 7.396 3.896-.044 6.337 2.354 6.54 5.18l.179 17.202c.048 4.531 3.244 8.167 6.819 9.735 3.15 1.382 6.497.945 9.604 1.099l.121-7.138c-4.282.342-7.015-1.071-7.837-4.652l-.294-16.774c-.057-3.226-1.602-5.97-5.056-8.433 2.74-1.604 4.472-4.218 4.738-6.749l.491-18.977c.801-3.985 4.681-4.497 9.673-4.042l.245 42.853c.875 9.847 7.699 9.964 13.691 10.652l1.217-7.556c-1.07-.461-2.99-.413-4.364-1.743-.632-.611-1.489-1.175-1.483-2.821l.121-49.099zm24.145 19.178c-9.819-.037-17.571 7.393-18.269 20.346-.021 13.703 6.375 21.1 19.741 21.645 7.523-.082 10.867-1.208 13.85-2.424l-1.387-7.1c-12.502 3.586-21.462 2.205-22.684-8.484h26.493c-.161-11.769-1.691-23.922-17.747-23.981l.003-.002zm.773 7.617c3.858.071 7.546 3.007 7.971 9.611h-17.227c.3-6.096 4.886-9.693 9.256-9.611zm44.682 1.561l1.384-7.446c-5.34-1.736-10.744-2.582-16.016-1.558-7.134 1.385-9.744 5.421-10.562 9.783-.526 5.659 1.453 10.057 6.406 12.12 8.235 3.435 13.598 5.483 12.898 8.917-1.298 6.367-12.595 3.361-18.441 1.039l-1.729 7.793c4.942 2.157 11.072 3.304 20.604 1.557 4.528-1.473 8.623-3.557 8.831-11.168.317-7.765-6.001-10.857-11.166-12.38-10.023-2.954-9.931-7.367-5.643-10.011 4.072-1.465 9.312.276 13.434 1.354zm30.137.056l1.385-7.447c-5.339-1.736-10.748-2.582-16.016-1.558-7.134 1.385-9.743 5.421-10.564 9.783-.523 5.66 1.454 10.056 6.408 12.121 8.236 3.432 13.6 5.482 12.899 8.916-1.297 6.367-12.596 3.362-18.44 1.039l-1.73 7.792c4.94 2.157 11.072 3.305 20.605 1.558 4.526-1.472 8.62-3.557 8.829-11.167.315-7.765-6.002-10.856-11.168-12.381-10.023-2.955-9.928-7.367-5.641-10.012 4.068-1.462 9.311.278 13.433 1.356zm-.44-28.372c10.578-.041 14.133 2.686 16.159 9.261.963 3.121.214 7.262.482 12.946.075 1.612-.442 4.299.182 6.058 1.722 5.932 4.791 5.208 6.573 5.417.075 2.304.053 2.889-.07 7.395-3.898-.044-6.336 2.355-6.54 5.178l-.178 17.203c-.049 4.531-3.244 8.167-6.82 9.735-3.15 1.382-6.496.948-9.603 1.1l-.122-7.136c4.282.342 7.016-1.071 7.836-4.653l.297-16.774c.056-3.227 1.6-5.971 5.054-8.432-2.74-1.604-4.471-4.22-4.737-6.749l-.491-18.978c-.072-2.833-3.838-4.556-7.958-4.286l-.064-7.285z"/></svg>