<svg xmlns="http://www.w3.org/2000/svg" width="120" height="120" viewBox="250.563 223.893 120 120"><path fill="#151515" d="M48.643 3.259h-5.13l5.334 5.789v2.754H37.861V8.576h5.333l-5.333-5.788V.028h10.782v3.231zm-12.96 0h-5.129l5.333 5.789v2.754H24.901V8.576h5.333l-5.333-5.788V.028h10.782v3.231zm-12.833.13h-5.535v5.052h5.535v3.36h-9.469V.028h9.469v3.361z"/><path fill="#646565" d="M5.84 80.255L.215 17.176h61.798l-5.629 63.069-25.308 7.017L5.84 80.255z"/><path fill="#888" d="M31.115 81.899l20.447-5.669 4.813-53.896h-25.26v59.565z"/><path fill="#FFF" d="M31.114 45.187h10.239l.706-7.922H31.114v-7.736h19.4l-.185 2.075-1.902 21.32H31.114v-7.737z"/><path fill="#EBEBEB" d="M31.161 65.279l-.034.01-8.616-2.327-.551-6.17h-7.767l1.084 12.147 15.848 4.399.036-.011v-8.048z"/><path fill="#FFF" d="M40.694 52.596l-.932 10.36-8.628 2.329v8.05l15.859-4.396.115-1.307 1.348-15.036h-7.762z"/><path fill="#EBEBEB" d="M31.141 29.529v7.737H12.455l-.154-1.739-.354-3.922-.185-2.075 19.379-.001zm-.027 15.659v7.737h-8.505l-.153-1.739-.354-3.921-.186-2.076 9.198-.001z"/><title>Slice 1</title><path fill="#646565" d="M77.655 80.801l-5.66-63.487h62.196l-5.666 63.478-25.471 7.062-25.399-7.053z"/><path fill="#888" d="M103.094 82.454l20.58-5.706 4.843-54.244h-25.423v59.95z"/><path fill="#EBEBEB" d="M103.094 46.052H92.789l-.711-7.975h11.016v-7.786H83.568l.188 2.089 1.913 21.457h17.426v-7.785zm0 20.22l-.035.01-8.672-2.342-.555-6.209h-7.817l1.092 12.225 15.949 4.429.037-.01.001-8.103z"/><path fill="#020202" d="M77.781.061h3.957V3.97h3.619V.061h3.958V11.9h-3.958V7.935h-3.619V11.9h-3.957V.061zm16.738 3.925h-3.482V.061h10.926v3.926h-3.485V11.9H94.52l-.001-7.914zm9.176-3.925h4.125l2.539 4.16 2.535-4.16h4.127V11.9h-3.938V6.031l-2.724 4.209h-.067l-2.726-4.209v5.868h-3.871V.061zm15.297 0h3.957v7.926h5.563V11.9h-9.521l.001-11.839z"/><path fill="#FFF" d="M103.065 46.052v7.785h9.589l-.903 10.099-8.686 2.344v8.102l15.964-4.425.116-1.314 1.829-20.5.191-2.09h-2.101l-15.999-.001zm0-15.761v7.787h18.808l.155-1.75.354-3.947.186-2.089-19.503-.001z"/><path opacity=".99" fill="#646565" stroke="#25201D" stroke-width="2" stroke-linejoin="round" stroke-opacity=".043" d="M168.52 18.121h97.521c8.746 0 15.836 4.91 15.836 10.967v46.528c0 6.058-7.09 10.968-15.836 10.968H168.52c-8.747 0-15.836-4.911-15.836-10.968V29.088c-.001-6.057 7.089-10.967 15.836-10.967z"/><path fill="#E7E7E7" d="M176.301 17.635c-17.208 0-23.326-.017-25.372 8.798-.688 2.963-.199 6.764-.448 12.061-.07 1.502.337 3.979-.169 5.642-1.679 5.504-4.463 4.851-6.124 5.046-.069 2.146-.048 2.691.065 6.888 3.63-.041 5.902 2.193 6.092 4.824l.167 16.024c.044 4.22 3.021 7.607 6.352 9.068 2.935 1.287 6.052.881 8.945 1.023l.113-6.649c-3.989.319-6.534-.998-7.3-4.333l-.274-15.625c-.053-3.005-1.491-5.561-4.709-7.855 2.553-1.493 4.165-3.929 4.414-6.286l.457-17.677c.746-3.712 4.36-4.189 9.01-3.764l.229 39.916c.815 9.171 7.172 9.281 12.754 9.922l1.133-7.038c-.997-.429-2.785-.384-4.065-1.624-.588-.57-1.387-1.095-1.382-2.628l.112-45.733zm22.49 17.863c-9.146-.034-16.367 6.887-17.017 18.952-.021 12.764 5.938 19.654 18.389 20.161 7.008-.076 10.122-1.125 12.9-2.258l-1.292-6.612c-11.646 3.34-19.991 2.054-21.129-7.903h24.678c-.15-10.963-1.576-22.283-16.531-22.339l.002-.001zm.721 7.096c3.594.066 7.028 2.8 7.424 8.953H190.89c.279-5.68 4.551-9.03 8.622-8.953zm41.619 1.453l1.289-6.936c-4.974-1.617-10.008-2.405-14.918-1.451-6.645 1.29-9.076 5.05-9.838 9.113-.49 5.272 1.354 9.367 5.968 11.29 7.671 3.198 12.666 5.108 12.015 8.306-1.209 5.931-11.732 3.131-17.178.968l-1.611 7.258c4.604 2.01 10.313 3.078 19.191 1.451 4.219-1.372 8.032-3.314 8.227-10.403.295-7.233-5.59-10.113-10.401-11.532-9.337-2.752-9.25-6.862-5.256-9.325 3.791-1.364 8.673.257 12.512 1.261zm28.072.052l1.29-6.936c-4.974-1.617-10.012-2.405-14.919-1.451-6.645 1.29-9.075 5.05-9.84 9.113-.488 5.272 1.354 9.367 5.969 11.29 7.672 3.197 12.668 5.108 12.016 8.306-1.208 5.931-11.732 3.131-17.177.968l-1.612 7.258c4.603 2.01 10.313 3.078 19.193 1.451 4.217-1.371 8.03-3.314 8.225-10.402.294-7.233-5.591-10.113-10.402-11.533-9.337-2.753-9.248-6.862-5.255-9.325 3.79-1.363 8.673.258 12.512 1.261zm-.409-26.427c9.853-.038 13.164 2.502 15.052 8.626.896 2.907.199 6.764.449 12.06.07 1.502-.412 4.004.169 5.642 1.604 5.526 4.463 4.852 6.123 5.046.07 2.146.049 2.691-.065 6.887-3.631-.04-5.901 2.195-6.092 4.824l-.166 16.025c-.045 4.22-3.021 7.607-6.353 9.068-2.935 1.287-6.051.883-8.944 1.023l-.114-6.647c3.989.319 6.535-.998 7.299-4.333l.277-15.625c.052-3.006 1.489-5.562 4.707-7.855-2.553-1.493-4.164-3.93-4.413-6.286l-.457-17.678c-.067-2.638-3.575-4.243-7.413-3.992l-.059-6.785z"/><path fill="#646565" d="M362.012 37.872a30 30 0 0 1 3.632 14.354c0 11.401-6.333 21.324-15.674 26.447l9.4-26.627c1.458-4.12 2.81-9.689 2.642-14.174zm-25.988 16.59l9.57 26.173a30.11 30.11 0 0 1-10.092 1.735c-3.05 0-5.992-.455-8.767-1.298l9.289-26.61zm-27.955-14.737l14.535 39.75c-10.193-4.836-17.246-15.222-17.246-27.249a30.038 30.038 0 0 1 2.71-12.5z"/><path fill="#646565" d="M350.527 35.104c-.221 7.24 8.656 8.78 3.874 23.338l-3.958 12.044-10.776-31.741c-.166-.49.027-.772.631-.772h3.047c.16 0 .288-.135.288-.3v-1.805c0-.165-.131-.308-.288-.3a195.48 195.48 0 0 1-17.205 0c-.159-.007-.29.137-.29.302v1.804c0 .165.131.3.29.3h3.065c.679 0 .87.229 1.034.666l4.426 12.108-6.662 20.113-10.95-32.248c-.136-.403.03-.64.416-.64h3.492c.159 0 .29-.134.29-.3V35.87c0-.165-.131-.309-.29-.303-3.661.195-7.339.235-10.76.27 5.374-8.277 14.697-13.755 25.3-13.755a30.024 30.024 0 0 1 20.39 7.946c-2.629-.067-5.254 1.497-5.364 5.077z"/><path fill="#FFF" d="M322.604 79.475l-14.535-39.75a30.06 30.06 0 0 0-2.712 12.501c0 12.027 7.054 22.413 17.247 27.249zm22.99 1.16l-9.57-26.174-9.29 26.609a30.073 30.073 0 0 0 8.768 1.298 30.079 30.079 0 0 0 10.092-1.734zm-10.092 4.56c-18.204 0-32.97-14.765-32.97-32.969 0-18.206 14.766-32.973 32.97-32.973 18.207 0 32.97 14.767 32.97 32.973 0 18.204-14.763 32.968-32.97 32.968zm18.9-26.753c4.782-14.558-4.095-16.099-3.874-23.338.11-3.581 2.734-5.144 5.365-5.076a30.023 30.023 0 0 0-20.39-7.946c-10.602 0-19.925 5.478-25.3 13.754 3.424-.034 7.099-.074 10.76-.268.159-.007.29.137.29.302v1.804c0 .165-.131.3-.29.3h-3.491c-.387 0-.553.237-.418.64l10.951 32.248 6.662-20.113-4.426-12.108c-.163-.437-.355-.665-1.034-.665h-3.065a.295.295 0 0 1-.289-.3V35.87c0-.165.13-.309.29-.302 5.7.253 11.436.252 17.204 0 .157-.007.288.136.288.3v1.805c0 .165-.128.3-.288.3H340.3c-.604 0-.798.282-.631.772l10.776 31.74 3.957-12.044zm11.242-6.216a30 30 0 0 0-3.632-14.354c.167 4.485-1.183 10.053-2.643 14.174l-9.4 26.627c9.34-5.123 15.675-15.045 15.675-26.447z"/><path fill="#646565" d="M335.502 19.253c-18.204 0-32.97 14.767-32.97 32.973 0 18.204 14.766 32.968 32.97 32.968 18.207 0 32.97-14.764 32.97-32.968 0-18.206-14.763-32.973-32.97-32.973zm0 68.027c-19.354 0-35.054-15.698-35.054-35.053 0-19.358 15.7-35.055 35.054-35.055 19.357 0 35.055 15.697 35.055 35.055 0 19.355-15.699 35.053-35.055 35.053z"/><g fill="#646565"><path d="M250.989 113.543c-6.542 9.182-5.876 21.238-1.067 31.125l.352.706c.079.147.148.306.228.453.039.087.088.166.146.254.067.157.157.304.246.461.146.274.303.548.46.813.079.146.167.295.256.441l.53.854c.078.127.157.244.236.363.244.383.499.764.771 1.147 0 .01.021.021.021.028.04.06.089.117.128.177.235.323.472.647.706.962.1.117.178.227.267.343.215.274.432.55.656.823.079.1.166.207.255.305.294.363.599.717.922 1.069 0 .009.009.009.009.021.012.021.031.029.031.039.304.334.617.668.931 1l.306.305c.246.254.49.5.745.744.107.098.206.196.306.295.332.324.666.637 1.019.951l.021.021a36.04 36.04 0 0 0 1.099.95c.117.109.245.207.383.314.255.207.511.412.774.618.128.108.264.216.402.325.283.215.587.42.873.636.106.079.205.157.304.235l.089.061c.274.195.559.383.843.569.127.079.246.167.362.245a44.4 44.4 0 0 0 1.687 1.05c.323.194.657.381.989.567.188.099.373.196.54.295.245.129.472.254.716.383.051.029.108.049.168.078.088.05.187.098.284.147.372.187.745.362 1.118.538.078.041.156.079.245.107.432.197.872.383 1.314.57.106.047.216.088.322.127.412.166.835.323 1.237.48.057.02.107.039.155.061.461.166.924.322 1.385.469.105.031.215.068.332.1.47.146.932.323 1.423.421 31.085 6.042 40.412-18.255 40.412-18.255-7.708 9.811-21.225 12.271-33.967 9.221-.481-.117-.953-.273-1.423-.421-.118-.038-.235-.079-.354-.108a72.852 72.852 0 0 1-1.363-.461c-.059-.02-.127-.037-.186-.068-.403-.146-.806-.305-1.208-.459-.117-.051-.216-.09-.333-.139-.44-.176-.873-.363-1.295-.561-.1-.038-.177-.078-.267-.117-.371-.177-.734-.344-1.097-.529a4.818 4.818 0 0 1-.324-.157c-.286-.147-.567-.304-.854-.45-.188-.107-.372-.197-.56-.305-.345-.187-.677-.383-1.021-.579-.106-.069-.227-.128-.332-.196-.453-.266-.896-.549-1.335-.824-.117-.078-.235-.166-.354-.244a57.773 57.773 0 0 1-.94-.638 3.509 3.509 0 0 1-.294-.217c-.306-.215-.6-.44-.895-.657a5.017 5.017 0 0 1-.392-.305 33.074 33.074 0 0 1-.795-.646c-.118-.099-.244-.195-.363-.293-.333-.287-.667-.57-1-.865-.028-.027-.069-.058-.107-.096-.354-.324-.696-.648-1.05-.973l-.294-.294c-.256-.246-.511-.5-.746-.757a5.123 5.123 0 0 1-.305-.303c-.304-.324-.617-.658-.922-.992-.02-.02-.028-.028-.038-.047a26.39 26.39 0 0 1-.934-1.09c-.089-.1-.165-.197-.255-.293-.216-.285-.44-.57-.667-.854a3.865 3.865 0 0 1-.244-.313 20.412 20.412 0 0 1-.774-1.06c-6.985-9.763-9.379-23.14-3.59-34.028"/><path d="M271.078 105.971c-4.737 6.65-4.592 15.627-1.039 22.758a29.754 29.754 0 0 0 2.021 3.463c.688 1.009 1.441 2.207 2.373 3.021.335.373.668.735 1.021 1.099.096.088.175.176.272.274.343.345.697.677 1.06 1.011.021.01.03.029.04.039.01 0 .01.012.01.012.394.361.814.705 1.227 1.047.1.07.195.147.284.227.422.324.854.657 1.295.961.01.01.029.02.04.03.195.137.394.274.588.401.1.06.188.129.284.188.313.206.638.412.962.599.05.027.089.06.137.078.284.168.569.324.845.491.097.06.207.106.305.157.195.107.393.216.588.314.03.019.061.028.089.039.41.207.822.411 1.235.598.087.039.187.078.275.119.333.146.677.283 1.02.42.146.061.295.119.433.168.304.117.617.226.94.332.138.051.275.099.422.139.441.148.883.324 1.355.412 24 4.257 29.76-14.194 29.76-14.194-5.093 7.151-14.813 10.478-25.132 7.671a37.95 37.95 0 0 1-1.354-.412c-.138-.039-.274-.089-.412-.138-.313-.106-.638-.224-.941-.334-.147-.058-.284-.106-.422-.166a17.509 17.509 0 0 1-1.021-.421c-.088-.038-.188-.079-.274-.117a23.496 23.496 0 0 1-1.245-.6c-.217-.098-.422-.215-.64-.324a6.638 6.638 0 0 1-.352-.196c-.275-.147-.531-.304-.796-.45a2.132 2.132 0 0 0-.187-.108 35.123 35.123 0 0 1-.962-.599l-.284-.195c-.216-.137-.421-.285-.617-.424a25.111 25.111 0 0 1-1.285-.961c-.1-.078-.195-.156-.293-.233-4.484-3.63-8.015-8.556-9.663-14.106-1.728-5.769-1.267-12.203 1.902-17.402"/><path d="M287.567 100.281c-2.747 4.041-3.012 9.053-1.105 13.517 2.008 4.738 6.119 8.456 10.926 10.222.196.067.392.137.599.205.089.029.177.06.255.088.284.088.569.196.862.246 13.282 2.569 16.883-6.817 17.833-8.19-3.147 4.541-8.455 5.629-14.958 4.051a16.967 16.967 0 0 1-1.57-.481 18.789 18.789 0 0 1-5.149-2.774c-5.826-4.415-9.437-12.841-5.64-19.707"/></g><g xmlns:rdf="http://www.w3.org/1999/02/22-rdf-syntax-ns#" xmlns:cc="http://creativecommons.org/ns#" xmlns:dc="http://purl.org/dc/elements/1.1/" xmlns:svg="http://www.w3.org/2000/svg" xmlns:inkscape="http://www.inkscape.org/namespaces/inkscape" xmlns:sodipodi="http://sodipodi.sourceforge.net/DTD/sodipodi-0.dtd" inkscape:version="0.48.1 r9760" sodipodi:docname="twitter_bootstrap_logo.svg"><path fill="#FFF" d="M70.526 109.18v46.883c0 6.449-5.271 11.723-11.723 11.723H11.92c-6.45 0-11.724-5.273-11.724-11.723V109.18c0-6.451 5.272-11.724 11.724-11.724h46.883c6.45.001 11.723 5.273 11.723 11.724zm-.692 46.883V109.18c0-2.931-1.149-5.703-3.239-7.793s-4.863-3.238-7.792-3.238H11.92c-2.93 0-5.703 1.148-7.792 3.238S.889 106.25.889 109.18v46.883c0 2.93 1.149 5.701 3.239 7.791a10.947 10.947 0 0 0 7.792 3.24h46.883c2.93 0 5.703-1.146 7.792-3.24a10.96 10.96 0 0 0 3.239-7.791z"/><path fill="#656565" d="M69.834 109.18v46.883c0 2.93-1.149 5.701-3.239 7.791a10.947 10.947 0 0 1-7.792 3.24H11.92c-2.93 0-5.703-1.146-7.792-3.24a10.962 10.962 0 0 1-3.239-7.791V109.18c0-2.931 1.149-5.703 3.239-7.793s4.863-3.238 7.792-3.238h46.883c2.93 0 5.703 1.148 7.792 3.238a10.963 10.963 0 0 1 3.239 7.793z"/><path fill="#FFF" d="M19.308 112.74h19.938c3.677 0 6.63.838 8.849 2.527 2.218 1.689 3.333 4.229 3.333 7.643 0 2.068-.505 3.839-1.516 5.311-1.013 1.471-2.46 2.62-4.346 3.424v.113c2.529.541 4.447 1.735 5.745 3.586 1.299 1.861 1.953 4.182 1.953 6.986 0 1.609-.287 3.115-.861 4.505-.574 1.401-1.471 2.61-2.7 3.619-1.23 1.011-2.792 1.817-4.712 2.414-1.919.597-4.194.896-6.838.896H19.308V112.74zm7.182 17.18h11.721c1.724 0 3.16-.482 4.31-1.471s1.725-2.391 1.725-4.23c0-2.068-.519-3.525-1.551-4.365-1.033-.84-2.528-1.265-4.481-1.265H26.49v11.331zm0 17.984h12.697c2.186 0 3.885-.563 5.081-1.701 1.206-1.127 1.816-2.734 1.816-4.805 0-2.033-.599-3.584-1.816-4.688s-2.896-1.632-5.081-1.632H26.49v12.826z"/></g><path d="M77.27 122.111c.131-.023.237-.061.344-.061 4.398.018 8.797.012 13.194.072 1.498.021 2.875.55 4.106 1.426 2.811 2 3.068 7.713-.788 9.762-.198.104-.393.211-.659.353.733.336 1.454.562 2.059.964 2.321 1.541 3.267 4.99 2.229 8.02-.907 2.645-3.061 3.735-5.563 4.315-.822.19-1.683.289-2.527.295-4.111.03-8.224.015-12.396.015l.001-25.161zm4.397 21.473c3.057 0 6.026.068 8.991-.025 1.862-.059 3.209-2.056 3.098-3.998-.111-1.916-1.29-3.545-3.112-3.629-2.938-.138-5.885-.1-8.829-.129-.044 0-.088.063-.147.11l-.001 7.671zm.01-11.061c2.733 0 5.369.1 7.993-.032 1.932-.097 3.022-1.644 2.951-3.755-.065-1.87-1.168-2.994-3.156-3.047-2.493-.064-4.987-.035-7.482-.041-.102 0-.204.055-.306.084v6.791zm136.288-3.455h3.664v1.965c.409-.315.906-.665 1.364-1.059 2.811-2.41 9.472-2.115 11.751 2.739 1.964 4.179 1.878 8.38-.771 12.271-1.467 2.154-3.738 2.925-6.312 2.785-2.236-.119-4.205-.822-5.754-2.893v9.162h-3.943l.001-24.97zm3.723 9.202c.166.914.256 1.852.513 2.74.568 1.984 2.305 3.452 4.104 3.579 2.404.17 4.13-.719 5-2.851 1.104-2.709 1.065-5.442-.55-7.975-1.904-2.986-6.467-2.736-8.08.393a8.701 8.701 0 0 0-.987 4.114zm-6.323 6.395c0 .749.026 1.509-.02 2.267-.011.187-.245.502-.396.516-1.145.095-2.307.262-3.436.145-.994-.104-1.542-.947-1.849-1.923-2.363 1.923-5.073 2.339-7.954 1.981-2.409-.297-4.407-2.276-4.577-4.475-.238-3.027.925-5 3.646-5.718 1.905-.503 3.893-.705 5.843-1.045.474-.083.953-.149 1.414-.276.888-.242 1.526-.734 1.594-1.744.065-1.043-.338-1.857-1.32-2.252-1.675-.674-3.38-.658-5.027.114-.754.353-1.2 1.06-1.596 2.263h-3.862c.003-1.473.516-2.711 1.492-3.752 1.293-1.377 2.979-1.918 4.792-2.107 1.899-.199 3.789-.19 5.635.433 2.48.837 3.669 2.474 3.666 5.095-.005 2.781 0 5.563-.003 8.346-.001 1.972-.001 1.972 1.958 2.132zm-5.972-6.278c-1.217.211-2.33.373-3.431.604-1.157.242-2.335.451-3.438.855-1.082.395-1.447 1.406-1.413 2.491.034 1.037.743 1.618 1.656 1.938 1.566.547 3.137.479 4.631-.221 1.07-.5 1.886-1.318 1.979-2.568.081-1.041.016-2.091.016-3.099zm-99.431-9.845c6.061-.071 9.614 4.371 9.238 10.42-.13 2.103-.694 4.067-2.078 5.729-1.491 1.789-3.411 2.732-5.711 2.988-1.92.213-3.787.088-5.567-.72-2.651-1.204-4.163-3.304-4.799-6.103a11.95 11.95 0 0 1 .073-5.723c1.078-4.183 4.3-6.574 8.844-6.591zm-5.276 9.653c.16.888.242 1.798.492 2.66.636 2.193 2.368 3.643 4.347 3.738 2.447.118 4.16-.912 5.068-3.191.888-2.225.89-4.5-.084-6.699-1.442-3.258-5.371-4.09-7.901-1.669-1.443 1.38-1.816 3.214-1.922 5.161zm26.302-9.653c5.466-.008 9.184 3.675 9.253 9.153.029 2.313-.348 4.52-1.705 6.457-1.943 2.775-4.75 3.744-7.983 3.598a11.239 11.239 0 0 1-3.537-.755c-2.605-1.022-4.159-3.038-4.85-5.733-.606-2.367-.539-4.72.231-7.033 1.183-3.549 4.428-5.68 8.591-5.687zm5.238 9.161c-.088-.486-.175-1.426-.436-2.313-.668-2.257-2.427-3.627-4.645-3.724-2.087-.09-3.966 1.14-4.775 3.297-.954 2.54-.884 5.069.554 7.437 1.497 2.465 4.892 3.004 7.118 1.166 1.698-1.403 2.113-3.341 2.184-5.863zm33.795-3.574c-1.248 0-2.462.01-3.676-.013-.15-.003-.382-.153-.43-.288-.685-1.896-2.289-2.121-3.95-2.131-.688-.004-1.422.164-2.06.431-1.363.572-1.514 2.113-.238 2.853.888.513 1.926.787 2.926 1.068 1.415.398 2.875.639 4.28 1.063 3.593 1.086 4.996 4.688 2.983 7.658-.965 1.422-2.406 2.194-4.061 2.594-2.446.59-4.88.633-7.271-.23-2.556-.923-3.907-2.777-4.106-5.584h3.9c1.11 2.896 4.244 4.023 7.182 2.543.679-.342 1.133-.828 1.178-1.629.049-.855-.281-1.592-1.051-1.878-1.368-.511-2.797-.86-4.204-1.272-1.164-.342-2.365-.588-3.488-1.033-2.167-.857-3.109-2.334-3.096-4.586.011-1.963 1.159-3.646 3.194-4.383 2.801-1.016 5.659-1.142 8.472-.039 1.903.744 3.036 2.215 3.509 4.192.045.181.007.385.007.664zm-21.182-5.111h3.611v2.953h-3.538c-.025.354-.058.602-.058.85-.004 2.979-.004 5.959 0 8.939.002.397.032.795.071 1.189.077.789.515 1.257 1.309 1.3.728.039 1.459.008 2.229.008v2.953c-1.648.408-3.325.388-4.948.024-1.89-.422-2.657-1.721-2.673-4.182-.024-3.349-.008-6.699-.008-10.049v-.984h-3v-2.986h2.959v-5.469h4.046v5.454zm33.772 18.304c-1.554 0-3.024.049-4.489-.014-1.422-.061-2.517-1.002-2.825-2.408a11.883 11.883 0 0 1-.281-2.442c-.031-3.151-.013-6.302-.013-9.454v-.997h-2.99v-2.946h2.945v-5.492h4.054v5.402h3.596v2.969h-3.447c-.041.268-.096.451-.096.638-.004 3.208-.015 6.416.006 9.624.012 1.695.456 2.105 2.139 2.094.45-.003.897-.001 1.403-.001-.002.971-.002 1.946-.002 3.027zm6.744-18.243v3.106c1.558-2.644 3.712-4.021 6.895-3.552v3.833c-1.512-.229-2.971-.268-4.263.661-1.691 1.218-2.283 2.997-2.326 4.958-.064 3.033-.017 6.068-.017 9.167h-3.973v-18.174l3.684.001z" fill="#656565"/><path fill="#151515" d="M7.985 233.237H1.488l6.756 7.332v3.49H-5.672v-4.087h6.755l-6.755-7.331v-3.498H7.985v4.094zm-16.415 0h-6.497l6.755 7.332v3.49h-13.916v-4.087h6.755l-6.755-7.331v-3.498H-8.43v4.094zm-16.256.165h-7.011v6.4h7.011v4.254H-36.68v-14.913h11.994v4.259z"/><path fill="#646565" d="M-46.232 330.766l-7.125-79.9H24.92l-7.13 79.889-32.056 8.888-31.966-8.877z"/><path fill="#888" d="M-14.216 332.847l25.9-7.179 6.096-68.269h-31.996v75.448z"/><path fill="#FFF" d="M-14.219 286.347h12.97l.894-10.033h-13.864v-9.8h24.575l-.234 2.627-2.41 27.006h-21.93v-9.8z"/><path fill="#EBEBEB" d="M-14.157 311.796l-.043.014-10.914-2.948-.698-7.814h-9.837l1.373 15.387 20.074 5.57.046-.014v-10.195z"/><path fill="#FFF" d="M-2.084 295.73l-1.18 13.123-10.929 2.95V322l20.088-5.566.146-1.657 1.707-19.046h-9.832z"/><path fill="#EBEBEB" d="M-14.184 266.514v9.799h-23.67l-.195-2.203-.449-4.968-.234-2.629h24.548v.001zm-.035 19.833v9.801h-10.773l-.194-2.204-.448-4.966-.235-2.629h11.651v-.002z"/><path fill="#646565" d="M40.56 331.062l-7.17-80.416h78.782l-7.176 80.405-32.263 8.945-32.173-8.934z"/><path fill="#888" d="M72.782 333.156l26.068-7.229 6.134-68.708H72.782v75.937z"/><path fill="#EBEBEB" d="M72.782 287.049H59.73l-.9-10.104h13.953v-9.861H48.049l.238 2.646 2.424 27.179h22.072v-9.86zm0 25.609l-.044.013-10.984-2.965-.702-7.865H51.15l1.383 15.485 20.203 5.608.047-.011-.001-10.265z"/><path fill="#020202" d="M40.719 228.79h5.013v4.953h4.584v-4.953h5.014v14.997h-5.014v-5.021h-4.584v5.021h-5.013V228.79zm21.202 4.974H57.51v-4.974h13.839v4.974h-4.415v10.023h-5.012l-.001-10.023zm11.623-4.974h5.225l3.216 5.271 3.211-5.271h5.228v14.997h-4.989v-7.434l-3.45 5.332H81.9l-3.453-5.332v7.432h-4.903V228.79zm19.377 0h5.012v10.04h7.047v4.957H92.919l.002-14.997z"/><path fill="#FFF" d="M72.746 287.049v9.859h12.146l-1.146 12.79-11.001 2.97v10.264l20.22-5.604.148-1.665 2.317-25.968.242-2.646H72.746zm0-19.966v9.864H96.57l.197-2.217.449-5 .234-2.646-24.704-.001z"/><path fill="#646565" d="M224.528 260.03c3.933 7.243 6.166 15.546 6.166 24.364 0 19.35-10.754 36.194-26.606 44.89l15.952-45.193c2.479-6.996 4.772-16.45 4.488-24.06zm-44.111 28.157l16.246 44.427a51.057 51.057 0 0 1-17.13 2.947 51.237 51.237 0 0 1-14.882-2.203l15.766-45.17zm-47.451-25.009l24.672 67.468c-17.3-8.21-29.272-25.836-29.272-46.25a50.973 50.973 0 0 1 4.6-21.218z"/><path fill="#646565" d="M205.037 255.33c-.378 12.289 14.688 14.902 6.574 39.615l-6.716 20.442-18.293-53.878c-.281-.829.047-1.308 1.072-1.308h5.17a.5.5 0 0 0 .49-.508v-3.066c0-.282-.221-.523-.49-.511-9.792.43-19.526.432-29.202 0-.27-.012-.49.232-.49.513v3.064c0 .278.22.509.49.509h5.203c1.152 0 1.477.388 1.755 1.13l7.51 20.553-11.305 34.139-18.586-54.737c-.23-.685.053-1.087.709-1.087h5.925c.27 0 .492-.23.492-.508v-3.064c0-.28-.222-.525-.492-.514-6.214.331-12.456.398-18.264.456 9.122-14.05 24.945-23.35 42.942-23.35 13.35 0 25.505 5.115 34.609 13.49-4.463-.11-8.92 2.542-9.103 8.62z"/><path fill="#FFF" d="M157.638 330.646l-24.672-67.468a51.004 51.004 0 0 0-4.6 21.216c0 20.415 11.973 38.043 29.272 46.252zm39.025 1.968l-16.246-44.429-15.767 45.17a51.096 51.096 0 0 0 14.881 2.2 51.033 51.033 0 0 0 17.132-2.94zm-17.132 7.738c-30.898 0-55.96-25.059-55.96-55.958 0-30.904 25.063-55.967 55.96-55.967 30.903 0 55.96 25.063 55.96 55.967 0 30.9-25.057 55.958-55.96 55.958zm32.08-45.407c8.114-24.708-6.953-27.326-6.575-39.615.184-6.08 4.64-8.731 9.103-8.617-9.106-8.375-21.26-13.487-34.609-13.487-17.995 0-33.821 9.3-42.942 23.346 5.81-.055 12.048-.125 18.264-.455.27-.012.492.232.492.513v3.064a.504.504 0 0 1-.492.509h-5.925c-.655 0-.94.402-.709 1.087l18.586 54.738 11.305-34.138-7.51-20.556c-.277-.742-.602-1.13-1.755-1.13h-5.203a.498.498 0 0 1-.49-.507v-3.063c0-.28.22-.525.49-.516 9.676.433 19.411.431 29.202 0 .269-.01.49.231.49.512v3.064a.5.5 0 0 1-.49.509h-5.17c-1.025 0-1.353.479-1.073 1.31l18.294 53.875 6.716-20.443zm19.083-10.55c0-8.819-2.234-17.122-6.166-24.364.284 7.61-2.01 17.064-4.487 24.06l-15.952 45.193c15.85-8.695 26.605-25.536 26.605-44.89z"/><path fill="#646565" d="M179.531 228.427c-30.898 0-55.96 25.063-55.96 55.967 0 30.898 25.063 55.958 55.96 55.958 30.903 0 55.96-25.059 55.96-55.958 0-30.903-25.057-55.967-55.96-55.967zm0 115.466c-32.851 0-59.5-26.643-59.5-59.498 0-32.858 26.649-59.502 59.5-59.502 32.853 0 59.5 26.644 59.5 59.502-.001 32.854-26.648 59.498-59.5 59.498z"/><g fill="#646565"><path d="M258.904 251.702c-10.705 15.586-9.615 36.054-1.747 52.837.189.396.384.798.575 1.197.13.251.243.52.372.77.065.147.146.282.239.432.109.267.257.516.402.782.239.466.496.93.753 1.38.129.25.273.502.418.75.29.482.579.967.868 1.449.128.216.257.415.386.617.4.649.817 1.297 1.264 1.947 0 .018.032.035.032.049.066.1.146.199.211.3.384.549.771 1.099 1.154 1.633.163.198.291.385.437.582.352.466.706.933 1.074 1.398.13.168.271.351.418.516.48.617.979 1.218 1.508 1.815 0 .015.015.015.015.035.019.034.051.05.051.067.497.565 1.01 1.133 1.522 1.696.161.165.338.35.501.519.401.43.802.848 1.219 1.262.176.165.337.334.5.501.542.55 1.09 1.081 1.666 1.615l.036.034c.094.081.193.168.273.251.497.463 1.01.914 1.524 1.361.191.188.401.353.626.535.418.351.836.699 1.268 1.049.21.184.432.366.658.553.463.363.961.712 1.429 1.078.174.135.336.268.497.399.05.034.098.07.145.103.449.332.915.65 1.38.968.207.134.402.282.593.415.708.481 1.431.95 2.166 1.413.198.118.384.236.596.369.528.33 1.075.646 1.618.964.309.166.61.332.884.501.402.219.771.431 1.171.649.083.05.178.083.275.133.144.085.306.166.465.25.609.315 1.22.615 1.831.913.126.071.254.135.399.184.707.333 1.427.648 2.151.968.174.079.354.149.527.215.674.281 1.366.549 2.024.815.093.033.176.067.255.103.754.281 1.512.548 2.266.797.173.053.352.114.544.168.769.249 1.523.549 2.328.715 50.866 10.257 66.129-30.988 66.129-30.988-12.614 16.653-34.731 20.831-55.583 15.652-.787-.199-1.56-.464-2.328-.715-.192-.064-.385-.134-.579-.184a131.51 131.51 0 0 1-2.23-.782c-.097-.034-.209-.064-.305-.116-.66-.249-1.317-.519-1.977-.78-.191-.084-.354-.15-.545-.234a39.153 39.153 0 0 1-2.119-.952c-.162-.064-.289-.132-.437-.198-.606-.3-1.201-.583-1.794-.898a7.138 7.138 0 0 1-.531-.268c-.468-.251-.928-.515-1.396-.763-.308-.185-.609-.336-.916-.518-.564-.317-1.107-.65-1.67-.983-.175-.118-.371-.218-.544-.333-.741-.451-1.464-.933-2.185-1.4-.19-.132-.385-.281-.58-.414a114.51 114.51 0 0 1-1.539-1.082 6.32 6.32 0 0 1-.48-.368c-.5-.365-.981-.748-1.464-1.115a8.828 8.828 0 0 1-.64-.518c-.45-.365-.884-.733-1.302-1.099-.194-.167-.399-.331-.595-.497-.545-.486-1.092-.968-1.637-1.469-.046-.047-.112-.098-.176-.161-.577-.551-1.14-1.103-1.717-1.651-.161-.165-.322-.334-.481-.5a28.821 28.821 0 0 1-1.221-1.284 8.079 8.079 0 0 1-.498-.514c-.497-.551-1.01-1.118-1.51-1.686-.031-.032-.046-.047-.062-.08a43.952 43.952 0 0 1-1.528-1.849c-.146-.17-.271-.336-.417-.497a82.103 82.103 0 0 0-1.091-1.452 6.45 6.45 0 0 1-.4-.53 36.734 36.734 0 0 1-1.267-1.799c-11.431-16.574-15.348-39.282-5.874-57.766"/><path d="M291.779 238.847c-7.753 11.29-7.515 26.529-1.701 38.634a51.027 51.027 0 0 0 3.306 5.878c1.126 1.713 2.359 3.746 3.884 5.127a62.228 62.228 0 0 0 1.671 1.866c.157.148.286.298.446.466a59.785 59.785 0 0 0 1.734 1.716c.033.016.049.05.066.065.015 0 .015.021.015.021.644.613 1.333 1.196 2.007 1.776.163.12.321.251.466.385a49.638 49.638 0 0 0 2.119 1.632c.015.018.048.032.064.051.32.232.645.466.963.682.162.102.307.219.466.32.512.35 1.042.699 1.573 1.016.082.047.146.102.224.134.465.284.932.55 1.383.833.158.102.338.182.498.268.32.183.643.366.961.533.051.031.1.049.146.066a54.54 54.54 0 0 0 2.022 1.015c.143.066.306.132.451.202.545.248 1.107.48 1.667.712.239.104.483.202.709.286.496.198 1.01.383 1.537.563.228.086.452.168.692.236.723.251 1.444.551 2.217.699 39.273 7.227 48.698-24.098 48.698-24.098-8.333 12.142-24.24 17.787-41.125 13.022a61.325 61.325 0 0 1-2.215-.698c-.225-.067-.448-.15-.674-.234a78.032 78.032 0 0 1-1.54-.567c-.241-.098-.466-.18-.691-.281a28.282 28.282 0 0 1-1.669-.715c-.145-.064-.308-.134-.449-.199a36.884 36.884 0 0 1-2.039-1.018c-.353-.166-.688-.364-1.045-.551a9.611 9.611 0 0 1-.576-.332c-.45-.251-.869-.516-1.303-.765a3.18 3.18 0 0 0-.306-.184 56.255 56.255 0 0 1-1.573-1.017 55.973 55.973 0 0 1-.465-.333c-.354-.23-.688-.483-1.01-.718a41.164 41.164 0 0 1-2.104-1.632l-.479-.396c-7.339-6.161-13.116-14.523-15.813-23.946-2.827-9.793-2.071-20.716 3.114-29.542"/><path d="M318.759 229.188c-4.495 6.86-4.929 15.368-1.81 22.946 3.285 8.043 10.014 14.354 17.879 17.352.321.114.641.232.98.349.145.049.289.101.417.148.465.148.931.333 1.411.418 21.733 4.361 27.625-11.573 29.181-13.904-5.151 7.709-13.835 9.556-24.477 6.876a26.455 26.455 0 0 1-2.569-.816 32.228 32.228 0 0 1-3.066-1.314 30.48 30.48 0 0 1-5.36-3.396c-9.534-7.495-15.442-21.798-9.229-33.454"/></g><g xmlns:rdf="http://www.w3.org/1999/02/22-rdf-syntax-ns#" xmlns:cc="http://creativecommons.org/ns#" xmlns:dc="http://purl.org/dc/elements/1.1/" xmlns:svg="http://www.w3.org/2000/svg" xmlns:inkscape="http://www.inkscape.org/namespaces/inkscape" xmlns:sodipodi="http://sodipodi.sourceforge.net/DTD/sodipodi-0.dtd" inkscape:version="0.48.1 r9760" sodipodi:docname="twitter_bootstrap_logo.svg"><path fill="#FFF" d="M18.911 392.229v49.33c0 6.786-5.475 12.334-12.174 12.334h-48.69c-6.699 0-12.175-5.548-12.175-12.334v-49.33c0-6.788 5.476-12.336 12.175-12.336h48.69c6.698 0 12.174 5.547 12.174 12.336zm-.718 49.33v-49.33c0-3.085-1.194-6.002-3.364-8.201-2.17-2.197-5.051-3.407-8.092-3.407h-48.69c-3.042 0-5.923 1.21-8.092 3.407a11.617 11.617 0 0 0-3.364 8.201v49.33c0 3.083 1.193 5.998 3.364 8.197 2.17 2.203 5.051 3.409 8.092 3.409h48.69c3.042 0 5.923-1.206 8.092-3.409a11.608 11.608 0 0 0 3.364-8.197z"/><path fill="#656565" d="M18.193 392.229v49.33c0 3.083-1.194 5.998-3.364 8.197-2.17 2.203-5.051 3.409-8.092 3.409h-48.69c-3.042 0-5.923-1.206-8.092-3.409a11.608 11.608 0 0 1-3.364-8.197v-49.33a11.61 11.61 0 0 1 3.364-8.201c2.17-2.197 5.051-3.407 8.092-3.407h48.69c3.042 0 5.923 1.21 8.092 3.407a11.617 11.617 0 0 1 3.364 8.201z"/><path fill="#FFF" d="M-34.281 395.975h20.707c3.819 0 6.885.88 9.19 2.66 2.303 1.775 3.461 4.448 3.461 8.041 0 2.176-.524 4.039-1.574 5.587-1.051 1.549-2.555 2.757-4.513 3.604v.117c2.626.569 4.618 1.828 5.966 3.773 1.35 1.959 2.029 4.4 2.029 7.353 0 1.691-.298 3.278-.895 4.739-.595 1.474-1.526 2.748-2.804 3.808-1.278 1.065-2.9 1.914-4.894 2.54-1.993.629-4.356.942-7.102.942h-19.572v-43.164h.001zm7.46 18.077h12.172c1.79 0 3.282-.508 4.475-1.55 1.194-1.038 1.792-2.515 1.792-4.45 0-2.176-.538-3.71-1.61-4.594-1.073-.882-2.625-1.329-4.654-1.329H-26.82v11.923h-.001zm0 18.923h13.187c2.27 0 4.034-.593 5.277-1.791 1.252-1.187 1.886-2.876 1.886-5.056 0-2.139-.622-3.77-1.886-4.931-1.265-1.161-3.007-1.72-5.277-1.72h-13.187v13.498z"/></g><path d="M25.915 405.835c.136-.025.247-.064.357-.064 4.567.02 9.136.014 13.703.076 1.556.023 2.986.579 4.265 1.5 2.918 2.104 3.187 8.115-.819 10.271-.206.109-.408.221-.685.371.762.354 1.51.591 2.138 1.015 2.411 1.621 3.392 5.251 2.314 8.438-.942 2.782-3.179 3.93-5.777 4.54-.854.201-1.748.305-2.625.313-4.269.029-8.54.014-12.874.014.003-8.815.003-17.629.003-26.474zm4.568 22.594c3.174 0 6.258.072 9.338-.027 1.934-.063 3.332-2.164 3.217-4.207-.116-2.016-1.34-3.729-3.232-3.816-3.051-.146-6.111-.105-9.17-.137-.045 0-.091.066-.152.117l-.001 8.07zm.009-11.638c2.839 0 5.576.104 8.301-.035 2.006-.102 3.139-1.729 3.065-3.951-.068-1.967-1.213-3.149-3.278-3.206-2.589-.066-5.18-.037-7.771-.043-.105 0-.212.059-.318.09l.001 7.145zm141.541-3.637h3.805v2.068c.425-.332.941-.701 1.417-1.114 2.918-2.537 9.837-2.227 12.204 2.882 2.041 4.396 1.95 8.817-.802 12.911-1.522 2.268-3.882 3.077-6.555 2.931-2.322-.124-4.367-.866-5.976-3.044v9.642h-4.095c.002-8.767.002-17.495.002-26.276zm3.866 9.682c.173.962.266 1.949.533 2.884.59 2.088 2.394 3.632 4.262 3.767 2.497.178 4.289-.758 5.192-3.001 1.146-2.85 1.107-5.726-.571-8.391-1.978-3.142-6.716-2.878-8.392.413a9.276 9.276 0 0 0-1.024 4.328zm-6.566 6.73c0 .788.027 1.586-.021 2.384-.01.197-.254.529-.412.543-1.188.1-2.396.275-3.568.152-1.032-.109-1.601-.997-1.919-2.023-2.455 2.023-5.27 2.46-8.261 2.086-2.502-.314-4.577-2.396-4.753-4.709-.248-3.187.96-5.263 3.786-6.016 1.979-.53 4.043-.743 6.068-1.101.492-.088.99-.158 1.469-.291.921-.255 1.585-.772 1.655-1.836.067-1.097-.351-1.953-1.371-2.369-1.74-.708-3.511-.692-5.222.121-.783.371-1.246 1.114-1.657 2.381h-4.012c.003-1.549.536-2.853 1.55-3.947 1.342-1.45 3.093-2.02 4.977-2.219 1.973-.209 3.935-.201 5.852.455 2.577.882 3.811 2.603 3.808 5.361-.005 2.928 0 5.854-.003 8.781-.001 2.077-.001 2.077 2.034 2.247zm-6.202-6.607c-1.264.223-2.42.393-3.563.636-1.202.254-2.425.475-3.571.9-1.123.415-1.502 1.479-1.467 2.622.036 1.091.771 1.701 1.72 2.039 1.627.574 3.258.504 4.809-.232 1.112-.526 1.958-1.387 2.056-2.702.083-1.097.016-2.201.016-3.263zM59.868 412.602c6.294-.076 9.984 4.6 9.594 10.963-.135 2.212-.721 4.28-2.158 6.029-1.549 1.883-3.543 2.876-5.932 3.146-1.994.222-3.933.091-5.781-.76-2.754-1.266-4.324-3.475-4.984-6.421a12.729 12.729 0 0 1 .076-6.021c1.119-4.403 4.465-6.919 9.185-6.936zm-5.481 10.156c.167.935.252 1.891.512 2.799.66 2.308 2.458 3.834 4.513 3.936 2.542.123 4.321-.96 5.264-3.36.922-2.34.924-4.733-.087-7.048-1.498-3.429-5.578-4.303-8.206-1.756-1.497 1.45-1.885 3.38-1.996 5.429zm27.316-10.156c5.676-.01 9.538 3.865 9.61 9.632.03 2.433-.361 4.753-1.771 6.794-2.019 2.919-4.933 3.938-8.291 3.784a11.48 11.48 0 0 1-3.673-.795c-2.707-1.075-4.32-3.196-5.037-6.031-.629-2.491-.56-4.966.241-7.401 1.229-3.735 4.598-5.978 8.921-5.983zm5.441 9.639c-.091-.514-.182-1.501-.453-2.434-.694-2.375-2.52-3.816-4.823-3.918-2.168-.096-4.119 1.198-4.959 3.47-.991 2.671-.917 5.332.575 7.822 1.555 2.595 5.08 3.161 7.392 1.228 1.763-1.477 2.193-3.516 2.268-6.168zm35.097-3.762c-1.296 0-2.557.012-3.817-.012-.156-.004-.396-.163-.446-.304-.711-1.994-2.377-2.232-4.103-2.242-.715-.004-1.477.174-2.139.453-1.416.603-1.571 2.224-.248 3.003.922.538 2 .827 3.039 1.123 1.47.418 2.986.672 4.445 1.116 3.731 1.144 5.189 4.936 3.099 8.06-1.002 1.496-2.499 2.308-4.217 2.729-2.54.62-5.068.665-7.551-.244-2.654-.97-4.058-2.921-4.265-5.875h4.051c1.153 3.048 4.407 4.234 7.458 2.677.705-.36 1.177-.872 1.223-1.715.051-.899-.292-1.674-1.091-1.975-1.421-.539-2.905-.907-4.366-1.341-1.209-.358-2.457-.618-3.623-1.087-2.25-.901-3.229-2.454-3.215-4.823.012-2.066 1.204-3.836 3.317-4.613 2.909-1.069 5.877-1.199 8.799-.041 1.977.783 3.153 2.33 3.644 4.412.046.192.006.407.006.699zm-21.998-5.377h3.75v3.106h-3.675c-.026.374-.06.634-.06.896-.004 3.134-.004 6.27 0 9.405.002.419.034.837.074 1.252.08.83.535 1.321 1.359 1.366.756.043 1.515.01 2.314.01v3.106c-1.712.43-3.454.408-5.139.025-1.962-.443-2.759-1.811-2.776-4.4-.025-3.521-.008-7.048-.008-10.571v-1.036h-3.116v-3.142h3.073v-5.757h4.202c.002 1.883.002 3.751.002 5.74zm35.073 19.26c-1.613 0-3.141.051-4.663-.016-1.476-.063-2.613-1.054-2.934-2.533a12.637 12.637 0 0 1-.292-2.569c-.033-3.317-.013-6.631-.013-9.947v-1.05h-3.105v-3.101h3.059v-5.78h4.209v5.687h3.734v3.124h-3.58c-.043.28-.1.474-.1.671-.004 3.374-.015 6.749.006 10.125.012 1.783.473 2.217 2.221 2.203.468-.002.932 0 1.458 0v3.186zm7.005-19.196v3.268c1.617-2.78 3.854-4.229 7.16-3.736v4.033c-1.57-.24-3.085-.283-4.427.694-1.756 1.282-2.371 3.155-2.416 5.218-.067 3.192-.018 6.385-.018 9.646h-4.126v-19.122l3.827-.001z" fill="#656565"/><path opacity=".99" fill="#646565" stroke="#25201D" stroke-width="2" stroke-linejoin="round" stroke-opacity=".043" d="M238.215 380.143H342.91c9.39 0 17.001 5.271 17.001 11.773v49.951c0 6.504-7.611 11.775-17.001 11.775H238.215c-9.391 0-17.001-5.273-17.001-11.775v-49.951c-.001-6.502 7.61-11.773 17.001-11.773z"/><path fill="#E7E7E7" d="M247.927 379.893c-17.856 0-24.205-.018-26.328 9.386-.714 3.16-.206 7.214-.465 12.864-.073 1.602.349 4.244-.176 6.019-1.741 5.871-4.631 5.174-6.354 5.381-.072 2.29-.05 2.871.067 7.349 3.767-.044 6.126 2.339 6.322 5.146l.173 17.092c.046 4.502 3.136 8.115 6.591 9.673 3.045 1.373 6.28.939 9.283 1.092l.116-7.092c-4.139.34-6.78-1.064-7.574-4.622l-.284-16.667c-.055-3.205-1.549-5.932-4.887-8.379 2.648-1.593 4.322-4.19 4.58-6.705l.475-18.854c.773-3.96 4.524-4.469 9.35-4.017l.236 42.577c.846 9.784 7.442 9.9 13.234 10.584l1.176-7.507c-1.034-.458-2.89-.41-4.218-1.732-.611-.607-1.439-1.167-1.435-2.803l.118-48.785zm23.338 19.054c-9.491-.037-16.984 7.345-17.658 20.215-.021 13.615 6.162 20.964 19.082 21.506 7.271-.082 10.504-1.2 13.387-2.408l-1.341-7.055c-12.084 3.563-20.744 2.191-21.926-8.43h25.608c-.156-11.693-1.635-23.769-17.154-23.827l.002-.001zm.748 7.569c3.729.07 7.293 2.987 7.704 9.549h-16.651c.29-6.057 4.722-9.631 8.947-9.549zm43.188 1.549l1.337-7.398c-5.161-1.725-10.385-2.565-15.48-1.547-6.895 1.376-9.418 5.386-10.208 9.72-.509 5.623 1.404 9.992 6.192 12.043 7.96 3.412 13.143 5.448 12.467 8.859-1.254 6.326-12.174 3.34-17.825 1.032l-1.672 7.743c4.777 2.144 10.703 3.282 19.916 1.547 4.377-1.464 8.334-3.534 8.535-11.097.307-7.715-5.8-10.788-10.793-12.301-9.688-2.935-9.599-7.319-5.454-9.946 3.936-1.454 9.001.275 12.985 1.345zm29.13.057l1.338-7.399c-5.16-1.726-10.389-2.565-15.48-1.548-6.896 1.376-9.417 5.387-10.211 9.721-.506 5.624 1.405 9.991 6.193 12.043 7.962 3.41 13.146 5.447 12.469 8.859-1.253 6.326-12.175 3.34-17.824 1.032l-1.673 7.741c4.775 2.144 10.702 3.284 19.917 1.548 4.375-1.462 8.332-3.533 8.534-11.095.305-7.715-5.801-10.787-10.795-12.302-9.688-2.936-9.596-7.319-5.452-9.947 3.933-1.453 9 .276 12.984 1.347zm-.425-28.189c10.225-.041 13.66 2.668 15.619 9.201.931 3.101.207 7.215.466 12.863.073 1.602-.428 4.271.176 6.019 1.664 5.894 4.631 5.175 6.354 5.382.073 2.289.051 2.87-.067 7.347-3.769-.043-6.125 2.341-6.322 5.145l-.172 17.093c-.047 4.502-3.136 8.115-6.592 9.673-3.045 1.373-6.279.942-9.282 1.093l-.117-7.09c4.139.34 6.78-1.064 7.573-4.623l.287-16.667c.054-3.206 1.547-5.933 4.885-8.378-2.648-1.593-4.321-4.192-4.579-6.705l-.475-18.855c-.069-2.815-3.709-4.526-7.691-4.259l-.063-7.239z"/></svg>